<svg width="174" height="80" viewBox="0 0 174 80" fill="none" xmlns="http://www.w3.org/2000/svg">
<path fill-rule="evenodd" clip-rule="evenodd" d="M106.049 43.0607H106.135C107.096 43.0607 107.694 42.5324 107.699 41.4681C107.688 41.0843 107.546 40.7331 107.293 40.4787C107.011 40.1903 106.615 40.0395 106.152 40.0395H104.947V43.0488C105.286 43.0563 105.66 43.0595 106.049 43.0607ZM106.014 35.9616C105.703 35.9616 105.326 35.966 104.947 35.9805V38.4583H106.016C106.434 38.4583 106.776 38.337 107.009 38.1033C107.228 37.8853 107.342 37.5743 107.342 37.2056C107.342 36.4146 106.925 35.9648 106.149 35.9616H106.014ZM103.079 34.2698C103.712 34.2321 105.124 34.1781 106.014 34.1781C106.172 34.1781 106.338 34.1787 106.508 34.1869C108.255 34.1869 109.253 35.4924 109.253 37.0215C109.253 38.0619 108.79 38.7523 107.702 39.1651C108.983 39.4559 109.655 40.4831 109.655 41.7371C109.655 42.6581 109.399 43.3887 108.932 43.8881C108.331 44.4988 107.421 44.8387 106.208 44.8387C105.124 44.8387 103.77 44.8047 103.079 44.7627V34.2698ZM88.2824 34.1743C87.1224 34.1743 86.4919 34.4086 86.116 34.9533C85.8424 35.3391 85.723 35.7286 85.723 36.7853V37.6849H84.7993V39.2272H85.723V44.6759H87.5643L87.5607 39.2272H89.4001V37.6849H87.5607L87.5643 36.8575C87.5643 35.912 87.707 35.7286 88.9386 35.7286C89.0702 35.7286 89.2201 35.7361 89.3805 35.7487L89.6713 34.2673C89.2152 34.2038 88.7506 34.1743 88.2824 34.1743ZM120.63 38.8773C121.657 38.9012 121.783 39.1179 121.783 40.0037V44.6759H123.624V39.8398C123.624 38.7837 123.505 38.4042 123.232 38.0185C122.855 37.4732 122.11 37.2376 120.854 37.2376C119.611 37.2376 118.821 37.3733 117.8 37.6849V44.6759H119.661V38.9671C120.152 38.8949 120.236 38.8773 120.63 38.8773ZM81.8256 44.6759H83.6853V34.3571H81.8256V44.6759ZM99.3006 39.8221C98.6445 39.8221 98.1131 40.3693 98.1131 41.0422C98.1131 41.7175 98.6445 42.2616 99.3006 42.2616C99.9544 42.2616 100.486 41.7175 100.486 41.0422C100.486 40.3693 99.9544 39.8221 99.3006 39.8221ZM75.3964 40.9807C75.3964 40.9807 75.9871 38.9458 76.0783 38.6273C76.3177 37.808 76.6745 36.5045 76.6745 36.5045H76.7345C76.7345 36.5045 77.0632 37.8552 77.2806 38.6147C77.3632 38.9156 77.9288 40.9807 77.9288 40.9807H75.3964ZM79.0013 44.6759H81.1431L77.9062 34.5312C77.5665 34.4131 77.1429 34.3396 76.693 34.3396C76.2014 34.3396 76.027 34.4074 75.6413 34.5312L72.2177 44.6759H74.2702C74.2702 44.6759 74.5469 43.7864 74.875 42.6819H78.4235C78.7418 43.7851 79.0013 44.6759 79.0013 44.6759ZM131.25 44.6759C131.25 44.6759 130.236 42.4539 129.988 41.95C129.707 41.3796 129.45 40.9857 128.877 40.8475V40.8135C129.26 40.7388 129.565 40.5 129.894 39.7738C130.214 39.0645 130.307 38.9119 130.492 38.7441C130.675 38.5745 130.925 38.6379 130.925 38.6379L131.02 37.3256C130.753 37.2897 130.458 37.2885 130.154 37.3067C129.651 37.3375 129.389 37.4845 129.142 37.7421C128.95 37.9387 128.817 38.2315 128.655 38.567C128.481 38.9338 128.343 39.2297 128.166 39.6048C127.989 39.9861 127.901 40.1583 127.419 40.1583H127.107V34.3571H125.249V44.6759H127.107V41.7094L127.359 41.7037C127.892 41.7037 127.984 41.8388 128.265 42.4143C128.596 43.1016 129.224 44.6759 129.224 44.6759H131.25ZM116.825 43.9786C116.333 43.2128 116.206 42.7617 116.206 41.7961V39.8398C116.206 38.7837 116.087 38.4042 115.814 38.0185C115.437 37.4732 114.808 37.2376 113.648 37.2376C112.828 37.2376 112.024 37.3293 111.257 37.5297L111.531 38.9232C112.052 38.849 112.6 38.7837 112.994 38.7837C114.222 38.7837 114.364 38.9671 114.364 39.9139V40.2682C114.091 40.1935 113.785 40.1394 113.425 40.1394C111.566 40.1394 110.588 41.0692 110.588 42.6078C110.588 44.0521 111.632 44.8387 112.914 44.8387C113.391 44.8387 113.887 44.7488 114.279 44.5855C114.518 44.4781 114.62 44.4165 114.928 44.2111C115.112 44.4887 115.486 44.7702 115.636 44.8217L116.825 43.9786ZM114.463 43.1411C114.053 43.285 113.785 43.3202 113.461 43.3202C112.796 43.3202 112.419 43.05 112.419 42.3496C112.419 41.6208 112.895 41.3752 113.818 41.3752C114.041 41.3752 114.262 41.4091 114.364 41.4468V41.9676C114.364 42.5311 114.394 42.9018 114.463 43.1411ZM96.1396 43.9786C95.6493 43.2128 95.5208 42.7617 95.5208 41.7961V39.8398C95.5208 38.7837 95.402 38.4042 95.129 38.0185C94.7519 37.4732 94.1233 37.2376 92.9633 37.2376C92.1443 37.2376 91.3479 37.3293 90.5785 37.5297L90.8533 38.9232C91.3761 38.849 91.9215 38.7837 92.3065 38.7837C93.5381 38.7837 93.6801 38.9671 93.6801 39.9139V40.2682C93.4071 40.1935 93.0974 40.1394 92.7411 40.1394C90.8882 40.1394 89.9106 41.0692 89.9106 42.6078C89.9106 44.0521 90.9537 44.8387 92.2282 44.8387C92.7056 44.8387 93.202 44.7488 93.595 44.5855C93.8319 44.4781 93.9348 44.4165 94.2439 44.2111C94.4275 44.4887 94.8003 44.7702 94.9515 44.8217L96.1396 43.9786ZM93.7774 43.1411C93.3685 43.285 93.0973 43.3202 92.7748 43.3202C92.1106 43.3202 91.7409 43.05 91.7409 42.3496C91.7409 41.6208 92.211 41.3752 93.131 41.3752C93.3532 41.3752 93.5773 41.4091 93.6801 41.4468V41.9676C93.6801 42.5311 93.7089 42.9018 93.7774 43.1411ZM52.0585 29.0931L49.277 37.6617H54.8828L52.0928 29.0931H52.0585ZM42.3122 51.9082C42.1402 51.9082 42 52.0558 42 52.2361V55.8812C42 56.0634 42.1402 56.2079 42.3122 56.2079H61.8366C62.008 56.2079 62.1451 56.0634 62.1451 55.8812V52.2361C62.1451 52.0558 62.008 51.9082 61.8366 51.9082H42.3122ZM52.0744 24C54.2113 24 54.8828 25.5706 55.4441 27.1418C55.6829 27.8071 61.2324 43.4063 61.3983 43.8743C61.4448 44.0031 61.4148 44.2192 61.2177 44.2965C61.0212 44.3719 58.1375 45.5234 57.9777 45.585C57.8186 45.6466 57.6392 45.5548 57.5805 45.3928C57.5217 45.2307 56.3262 41.8306 56.1909 41.4506H47.9682C47.833 41.8306 46.6246 45.2376 46.5689 45.3928C46.5144 45.5486 46.3412 45.6528 46.1723 45.585C46.0033 45.5165 43.1061 44.3643 42.9347 44.2965C42.7688 44.2311 42.6929 44.037 42.7517 43.8743C42.9555 43.2888 48.4212 27.9416 48.701 27.1418C49.2421 25.5957 49.9381 24 52.0744 24Z" fill="#E42813"/>
</svg>
