<svg width="204" height="204" viewBox="0 0 204 204" fill="none" xmlns="http://www.w3.org/2000/svg">
<g clip-path="url(#clip0)">
<path d="M69.0838 133.083C63.0381 130.923 56.9496 128.727 50.6972 126.468C51.3262 124.041 51.9298 121.556 52.5725 119.069C55.5894 107.437 58.6453 95.8008 61.6621 84.1689C61.8901 83.2791 62.1855 82.8754 63.1653 82.8178C67.0415 82.5522 70.6113 81.1738 74.1736 79.7173C79.9133 77.3554 85.7174 75.0462 91.4786 72.7018C94.5487 71.4518 97.7069 71.0996 100.982 71.7411C111.306 73.7148 121.626 75.6494 131.928 77.6055C134.439 78.0861 136.63 79.1306 138.342 81.1094C141.694 84.9364 140.726 90.1371 136.169 92.5002C134.124 93.5502 131.967 93.8623 129.702 93.4756C121.709 92.1581 113.698 90.862 105.702 89.5055C104.859 89.3524 104.345 89.5412 103.817 90.1848C92.7488 103.718 81.6591 117.233 70.5907 130.766C70.0412 131.392 69.667 132.198 69.0838 133.083Z" fill="#FFDEA0"/>
<path d="M18.483 125.558C23.2627 107.188 28.0325 88.9178 32.8122 70.5479C42.1364 73.7835 51.3397 76.9916 60.7243 80.2408C56.3455 97.073 51.9668 113.905 47.5252 130.901C37.892 129.135 28.2587 127.369 18.483 125.558ZM36.8169 118.382C35.0631 116.978 32.6857 117.253 31.3027 119.026C29.9901 120.713 30.2491 123.151 31.9172 124.484C33.5638 125.799 36.0621 125.552 37.3824 123.943C38.773 122.248 38.5278 119.75 36.8169 118.382Z" fill="#FFDEA0"/>
<path d="M181.48 92.9211C167.033 81.0671 152.801 69.389 138.375 57.5525C138.006 58.0031 137.671 58.4107 137.337 58.8183C133.147 63.9241 128.936 69.0123 124.772 74.1747C124.209 74.8612 123.707 75.1671 122.796 74.9222C121.479 74.5599 120.104 74.4004 118.557 74.1003C118.905 73.6322 119.126 73.2752 119.408 72.932C125.164 65.9169 130.902 58.9232 136.659 51.9081C140.729 46.9915 146.623 46.4079 151.553 50.453C162.935 59.792 174.338 69.1485 185.719 78.4875C190.842 82.6909 191.384 88.4123 187.159 93.561C178.428 104.202 169.68 114.864 160.949 125.504C160.544 125.998 160.139 126.491 159.769 126.942C158.399 126.033 157.136 125.212 155.748 124.324C164.247 113.923 172.819 103.476 181.48 92.9211ZM163.43 70.8594C165.059 72.196 166.727 73.5288 168.338 74.8869C169.006 75.4712 169.724 75.5577 170.295 74.9493C170.937 74.2551 170.725 73.5073 169.997 72.9094C166.76 70.2536 163.502 67.5803 160.265 64.9246C159.58 64.3618 158.868 64.1367 158.216 64.9304C157.565 65.7242 157.903 66.3608 158.628 66.9197C160.215 68.2212 161.822 69.5403 163.43 70.8594ZM153.297 62.7961C153.447 62.9193 153.579 63.0638 153.729 63.1869C154.325 63.0294 155.095 63.0516 155.412 62.6655C155.694 62.3222 155.626 61.2253 155.333 61.0571C154.912 60.7834 153.946 60.7805 153.583 61.0925C153.254 61.3615 153.395 62.1951 153.297 62.7961Z" fill="#FFDEA0"/>
<path d="M110.747 91.3119C99.7625 104.698 88.9896 117.828 78.111 131.086C78.604 131.49 79.0113 131.824 79.44 132.176C90.6287 141.357 101.796 150.52 113.002 159.679C113.731 160.277 114.122 160.849 114.161 161.851C114.253 164.187 115.285 166.075 117.143 167.527C119 168.98 120.765 170.5 122.565 171.977C121.048 174.788 117.038 176.703 113.499 175.989C111.771 175.648 109.905 174.906 108.533 173.781C96.7164 164.228 84.9666 154.551 73.2382 144.892C68.6941 141.163 68.3108 135.249 72.201 130.508C82.3578 118.13 92.5613 105.825 102.59 93.3416C104.399 91.0929 106.034 89.8863 108.844 91.0075C109.354 91.1739 109.925 91.1764 110.747 91.3119ZM92.0604 151.326C90.5779 153.089 90.7856 155.808 92.5256 157.272C94.2656 158.735 96.9982 158.465 98.4593 156.684C99.9203 154.904 99.6559 152.21 97.8769 150.75C96.2012 149.339 93.4862 149.588 92.0604 151.326Z" fill="#FFDEA0"/>
<path d="M131.331 159.283C129.231 157.559 127.073 155.861 125.008 154.095C121.931 151.463 121.741 147.717 124.495 144.448C126.914 141.587 130.705 141.251 133.709 143.753C137.786 147.133 141.848 150.574 145.872 154.02C148.884 156.599 149.063 160.228 146.422 163.445C144.028 166.363 140.363 166.765 137.334 164.424C136.288 163.601 135.273 162.697 134.261 161.831C133.254 161.004 132.268 160.195 131.261 159.369C131.278 159.347 131.296 159.326 131.331 159.283Z" fill="#FFDEA0"/>
<path d="M141.384 148.65C139.777 147.331 138.169 146.012 136.561 144.692C133.539 142.213 132.972 138.445 134.984 135.644C137.719 131.786 141.862 131.632 144.838 134.038C148.517 136.985 152.104 140 155.625 143.14C158.302 145.516 158.217 149.072 155.643 152.165C153.425 154.868 149.91 155.394 147.115 153.424C146.097 152.697 145.168 151.862 144.204 151.071C143.239 150.279 142.274 149.488 141.31 148.696C141.367 148.671 141.367 148.671 141.384 148.65Z" fill="#FFDEA0"/>
<path d="M130.103 159.819C131.647 161.085 133.204 162.291 134.712 163.6C137.578 166.096 137.836 169.933 135.403 172.855C132.97 175.776 129.131 176.215 126.177 173.827C123.308 171.51 120.475 169.149 117.656 166.728C114.515 164.043 114.19 160.33 116.76 157.198C119.189 154.238 122.884 153.931 126.066 156.434C127.434 157.521 128.788 158.668 130.139 159.776C130.139 159.776 130.121 159.797 130.103 159.819Z" fill="#FFDEA0"/>
<path d="M162.807 139.413C160.11 142.656 156.257 142.762 153.167 139.796C151.905 138.581 150.502 137.537 149.187 136.386C146.488 133.993 146.343 130.499 148.85 127.53C151.181 124.777 154.73 124.386 157.452 126.62C158.952 127.851 160.452 129.082 161.935 130.334C165.022 132.867 165.328 136.384 162.807 139.413Z" fill="#FFDEA0"/>
</g>
<defs>
<clipPath id="clip0">
<rect width="146.756" height="142.471" fill="white" transform="translate(90.4443 0.31111) rotate(39.37)"/>
</clipPath>
</defs>
</svg>
