<svg width="229" height="178" viewBox="0 0 229 178" fill="none" xmlns="http://www.w3.org/2000/svg">
<path d="M224.706 45.6044C226.095 44.7024 226.491 42.8445 225.589 41.4547L210.89 18.8064C209.988 17.4166 208.13 17.0211 206.74 17.9231C205.351 18.8251 204.955 20.6829 205.857 22.0728L218.923 42.2046L198.791 55.2702C197.401 56.1721 197.006 58.03 197.908 59.4198C198.81 60.8096 200.667 61.2051 202.057 60.3031L224.706 45.6044ZM223.697 40.1536C221.712 39.7312 219.72 39.338 217.722 38.9741L216.647 44.8771C218.587 45.2304 220.521 45.6121 222.448 46.0222L223.697 40.1536ZM211.713 37.9717C207.703 37.3631 203.669 36.8718 199.62 36.4987L199.07 42.4734C203.002 42.8357 206.919 43.3129 210.813 43.9038L211.713 37.9717ZM193.548 36.0289C189.5 35.7751 185.439 35.6393 181.374 35.6228L181.35 41.6227C185.298 41.6388 189.241 41.7706 193.173 42.0171L193.548 36.0289ZM175.283 35.6873C171.227 35.7898 167.171 36.0114 163.121 36.3532L163.625 42.332C167.557 42.0001 171.496 41.7849 175.435 41.6854L175.283 35.6873ZM157.058 36.9555C153.026 37.4165 149.004 37.9978 144.999 38.7005L146.036 44.6102C149.922 43.9284 153.826 43.3642 157.74 42.9166L157.058 36.9555ZM139.014 39.844C135.039 40.666 131.085 41.6092 127.159 42.675L128.73 48.4655C132.538 47.432 136.373 46.5171 140.229 45.7197L139.014 39.844ZM121.302 44.3623C117.419 45.5462 113.568 46.8524 109.755 48.2818L111.862 53.9C115.556 52.515 119.288 51.2491 123.052 50.1013L121.302 44.3623ZM104.08 50.5128C100.328 52.057 96.6183 53.7237 92.9568 55.514L95.5923 60.9042C99.1371 59.1709 102.73 57.5569 106.364 56.0612L104.08 50.5128ZM87.5181 58.2838C83.9363 60.1821 80.406 62.2025 76.934 64.3461L80.086 69.4515C83.445 67.3776 86.8611 65.4225 90.3278 63.5853L87.5181 58.2838ZM71.7941 67.6385C68.4202 69.8796 65.1068 72.2416 61.8606 74.7256L65.5067 79.4906C68.6459 77.0886 71.8504 74.8042 75.1139 72.6364L71.7941 67.6385ZM57.0767 78.515C53.9478 81.0801 50.8874 83.7638 47.902 86.567L52.0089 90.9411C54.8958 88.2305 57.8551 85.6354 60.8807 83.155L57.0767 78.515ZM43.5258 90.8161C40.6747 93.6789 37.8986 96.6566 35.2037 99.7501L39.7277 103.691C42.3348 100.699 45.0198 97.8186 47.7771 95.0501L43.5258 90.8161ZM31.277 104.411C28.7294 107.538 26.2619 110.775 23.8798 114.123L28.7687 117.601C31.0751 114.36 33.4636 111.226 35.9286 108.201L31.277 104.411ZM20.4305 119.14C18.2034 122.492 16.0593 125.949 14.0033 129.511L19.1998 132.511C21.1932 129.057 23.271 125.707 25.4283 122.46L20.4305 119.14ZM11.0437 134.826C9.14393 138.363 7.3285 141.998 5.60186 145.732L11.0478 148.251C12.7246 144.624 14.4867 141.096 16.3296 137.665L11.0437 134.826ZM3.12929 151.29C2.33301 153.151 1.55821 155.036 0.805416 156.944L6.38678 159.146C7.11879 157.291 7.87196 155.458 8.64577 153.649L3.12929 151.29Z" fill="#EEF7FB"/>
</svg>
