<svg width="92" height="81" viewBox="0 0 92 81" fill="none" xmlns="http://www.w3.org/2000/svg">
<path fill-rule="evenodd" clip-rule="evenodd" d="M4.11914 30.3441H26.3183C26.3183 34.1249 29.6007 37.2177 33.6127 37.2177H58.7749C62.7869 37.2177 66.0693 34.1249 66.0693 30.3441H88.2685V75.0961H4.11914V30.3441Z" fill="#FFDEA0"/>
<path fill-rule="evenodd" clip-rule="evenodd" d="M36.3086 48.2449H56.9721C59.4139 48.2449 61.4109 50.0744 61.4109 52.3107V56.7096C61.4109 58.9459 59.4139 60.7755 56.9721 60.7755H36.3086C33.8668 60.7755 31.8691 58.9459 31.8691 56.7096V52.3107C31.8691 50.0744 33.8668 48.2449 36.3086 48.2449Z" fill="white"/>
<path fill-rule="evenodd" clip-rule="evenodd" d="M16.7422 28.108H4.11914L10.5069 12.4432H24.5973V20.1926H67.7904V12.4432H81.8808L88.2685 28.108H75.6468V20.3407H16.7422V28.108ZM26.3187 28.176C26.3587 31.8365 29.6254 34.8193 33.6127 34.8193H33.6783C29.713 34.8026 26.4745 31.8199 26.4745 28.176H26.3187ZM58.7106 34.8193H58.7749C62.7623 34.8193 66.029 31.8365 66.069 28.176H65.9144C65.9144 31.8199 62.6759 34.8026 58.7106 34.8193Z" fill="#FFDEA0"/>
<path fill-rule="evenodd" clip-rule="evenodd" d="M27.3945 6.17792H65.8884V18.7085H27.3945L27.3945 6.17792Z" fill="#FFDEA0"/>
</svg>
