<svg width="208" height="92" viewBox="0 0 208 92" fill="none" xmlns="http://www.w3.org/2000/svg">
<path fill-rule="evenodd" clip-rule="evenodd" d="M31.276 48.4055C30.591 48.3206 29.567 48.2797 28.198 48.2797V48.0956C29.342 48.0956 30.875 48.0547 32.166 47.6447C33.576 47.1959 34.699 46.0527 34.718 44.289C34.745 41.8565 32.114 40.9302 30.109 40.7144C29.116 40.6071 27.739 40.5539 25.979 40.5539L13 40.5774V41.7757L14.628 41.7778C16.15 41.7788 16.396 43.515 16.396 44.5068V53.4237C16.396 55.1456 15.857 56.1691 14.055 56.1691H13V57.3511H26.766C27.664 57.3511 28.722 57.3112 29.941 57.2652C31.158 57.2202 32.19 57.0402 33.033 56.7274C34.828 56.0587 35.961 54.7202 35.943 52.7152C35.918 49.8441 33.772 48.7122 31.276 48.4055ZM23.329 41.7768L24.512 41.7757C26.038 41.8289 27.8 42.6725 27.752 44.5886C27.713 46.1509 26.874 47.6059 25.528 47.61L23.308 47.6171L23.329 41.7768ZM25.332 56.165L23.646 56.1691H23.308V48.8257L25.79 48.8277C27.29 48.8277 28.681 50.2234 28.681 52.342C28.681 54.6896 27.578 56.1599 25.332 56.165Z" fill="#E20714"/>
<path fill-rule="evenodd" clip-rule="evenodd" d="M52.178 47.1192C50.95 46.6519 49.766 46.2419 48.623 45.8902C47.479 45.5364 46.586 45.245 45.939 45.016C45.116 44.7235 43.903 44.4894 44.265 43.3463C44.442 42.7839 45.391 42.0068 46.801 42.0068C48.566 42.0068 50.039 42.4884 51.179 43.29C52.249 44.0415 53.026 45.0753 53.478 46.2572H54.577L54.621 40.6367H53.499C52.958 42.2563 51.635 41.7297 50.942 41.4895C50.585 41.3668 50.249 41.2195 49.712 41.058C48.666 40.7451 47.67 40.5539 46.603 40.5539C44.672 40.5539 42.968 41.0212 41.489 42.062C40.008 43.1039 39.269 44.4321 39.269 45.9321C39.269 47.8492 40.403 49.3369 41.376 49.84C42.772 50.5639 44.111 51.1058 45.366 51.5189C46.621 51.933 47.812 52.3205 48.936 52.6794C50.051 53.0362 51.303 53.3512 51.136 54.5137C50.972 55.664 49.28 56.0484 48.181 56.0382C46.882 56.0249 45.399 55.6139 44.058 54.8777C42.188 53.8501 40.595 52.1886 40.168 50.0844H39V57.8408H40.168C40.193 56.7447 40.677 56.0914 41.635 56.0249C42.679 55.9533 43.308 56.439 44.117 56.8664C45.68 57.6905 47.235 57.8643 48.749 57.8643C52.339 57.8643 56.333 56.2079 56.298 52.3972C56.286 51.1099 56.093 50.2265 55.294 49.3114C54.509 48.4147 53.405 47.5865 52.178 47.1192Z" fill="#E20714"/>
<path fill-rule="evenodd" clip-rule="evenodd" d="M136.277 48.4055C135.592 48.3206 134.567 48.2797 133.199 48.2797V48.0956C134.343 48.0956 135.876 48.0547 137.167 47.6447C138.576 47.1959 139.7 46.0527 139.719 44.289C139.746 41.8565 137.115 40.9302 135.11 40.7144C134.117 40.6071 132.74 40.5539 130.98 40.5539L118 40.5774V41.7757L119.629 41.7778C121.15 41.7788 121.397 43.515 121.397 44.5068V53.4237C121.397 55.1456 120.858 56.1691 119.056 56.1691H118V57.3511H131.767C132.665 57.3511 133.723 57.3112 134.942 57.2652C136.159 57.2202 137.191 57.0402 138.033 56.7274C139.829 56.0587 140.962 54.7202 140.944 52.7152C140.919 49.8441 138.773 48.7122 136.277 48.4055ZM128.329 41.7768L129.513 41.7757C131.039 41.8289 132.8 42.6725 132.753 44.5886C132.713 46.1509 131.874 47.6059 130.529 47.61L128.309 47.6171L128.329 41.7768ZM130.333 56.165L128.647 56.1691H128.309V48.8257L130.791 48.8277C132.291 48.8277 133.681 50.2234 133.681 52.342C133.681 54.6896 132.579 56.1599 130.333 56.165Z" fill="#E20714"/>
<mask id="mask0" mask-type="alpha" maskUnits="userSpaceOnUse" x="176" y="40" width="20" height="18">
<path fill-rule="evenodd" clip-rule="evenodd" d="M176.608 40.7376H195.952V57.5144H176.608V40.7376Z" fill="white"/>
</mask>
<g mask="url(#mask0)">
<path fill-rule="evenodd" clip-rule="evenodd" d="M195.12 56.3273C194.201 56.3273 193.72 55.9295 192.969 54.9408L188.819 49.4696L189.289 48.9522C189.873 48.3111 190.74 47.7896 192.662 47.7896H193.578V46.5944H186.444L186.446 47.7896H187.061C188.147 47.7896 187.869 48.7702 187.252 49.2732L184.307 51.673L184.308 50.3039V40.7376H176.608L176.614 41.938H177.429C178.156 41.938 178.969 42.0597 178.969 43.713V54.2435C178.969 55.5226 179.133 56.3273 177.775 56.3273H177.376V57.5123L185.937 57.5144V56.3273L185.507 56.3211C184.653 56.3273 184.392 55.9755 184.392 54.6514V53.1484L185.002 52.6188L186.428 54.4449C187.017 55.1208 187.65 56.3273 186.98 56.3273H186.774L186.771 57.5031L195.952 57.5123V56.3273H195.12Z" fill="#E20714"/>
</g>
<path fill-rule="evenodd" clip-rule="evenodd" d="M175.499 56.632C174.407 56.5901 174.372 56.1443 174.348 55.2456L174.318 54.1873V50.4972C174.318 47.4676 171.106 46.713 169.4 46.6895C167.846 46.667 166.006 47.1292 165.185 48.6435V46.9196H158.019L158.01 48.1169H158.694C159.789 48.1169 159.85 49.169 159.874 49.9256V54.6904C159.851 55.5707 159.959 56.6463 158.694 56.6463H158.004L158 57.8345H166.757L166.759 56.6463C165.769 56.6463 165.347 56.6463 165.326 55.6218L165.298 54.5636V50.6802C165.726 49.4512 166.701 48.3776 167.678 48.3653C168.558 48.3531 168.841 48.852 168.866 49.6956L168.895 50.6383V54.5636L168.866 55.6218C168.866 56.3232 168.703 56.6463 167.415 56.6463L167.416 57.8406L175.875 57.8314V56.6463L175.499 56.632Z" fill="#E20714"/>
<path fill-rule="evenodd" clip-rule="evenodd" d="M75.277 48.4055C74.592 48.3206 73.567 48.2797 72.199 48.2797V48.0956C73.343 48.0956 74.876 48.0547 76.167 47.6447C77.576 47.1959 78.7 46.0527 78.719 44.289C78.746 41.8565 76.115 40.9302 74.11 40.7144C73.117 40.6071 71.74 40.5539 69.98 40.5539L57 40.5774V41.7757L58.629 41.7778C60.15 41.7788 60.397 43.515 60.397 44.5068V53.4237C60.397 55.1456 59.858 56.1691 58.056 56.1691H57V57.3511H70.767C71.665 57.3511 72.723 57.3112 73.942 57.2652C75.159 57.2202 76.191 57.0402 77.033 56.7274C78.829 56.0587 79.962 54.7202 79.944 52.7152C79.919 49.8441 77.773 48.7122 75.277 48.4055ZM67.329 41.7768L68.513 41.7757C70.039 41.8289 71.8 42.6725 71.753 44.5886C71.713 46.1509 70.874 47.6059 69.529 47.61L67.309 47.6171L67.329 41.7768ZM69.333 56.165L67.647 56.1691H67.309V48.8257L69.791 48.8277C71.291 48.8277 72.681 50.2234 72.681 52.342C72.681 54.6896 71.579 56.1599 69.333 56.165Z" fill="#E20714"/>
<path fill-rule="evenodd" clip-rule="evenodd" d="M155.079 55.6469C154.745 55.652 154.406 55.4188 154.406 54.3902V50.5539C154.406 49.1961 153.601 47.8822 152.53 47.4027C151.107 46.7667 149.41 46.7186 148.305 46.6931C146.346 46.6491 144.945 46.9415 143.631 47.5192C142.329 48.0928 141.639 48.8934 141.675 49.7635C141.722 50.9056 143.152 51.376 144.07 51.376C145.023 51.376 146.982 51.0692 146.977 49.8627C146.974 49.0948 146.218 49.1705 146.218 48.8034C146.218 48.2493 147.039 47.9088 147.666 47.9272C148.828 47.9609 148.924 48.7799 148.926 49.149L148.93 50.1255C148.933 50.6562 148.34 50.9363 147.458 51.2185C146.086 51.6623 144.62 51.8167 143.246 52.3115C141.865 52.8095 141 53.9271 141 54.9812C141 55.9331 141.375 56.6785 142.124 57.2153C142.874 57.7521 143.848 58.021 145.047 58.021C146.659 58.021 148.548 57.564 149.29 56.1571C149.737 57.6039 151.37 58.021 152.579 58.021C153.925 58.021 155.068 57.8114 155.84 57.1806C156.512 56.6305 156.904 55.7593 156.904 54.4291H155.739C155.801 55.427 155.385 55.6438 155.079 55.6469ZM149.01 54.6827C148.834 55.2869 148.407 55.9383 147.683 55.9383C147.029 55.9383 146.439 55.4362 146.426 54.47C146.415 53.6827 146.908 53.0498 147.478 52.7011C147.973 52.3974 148.56 52.1745 149.025 51.8831L149.01 54.6827Z" fill="#E20714"/>
<mask id="mask1" mask-type="alpha" maskUnits="userSpaceOnUse" x="87" y="31" width="26" height="35">
<path fill-rule="evenodd" clip-rule="evenodd" d="M87.957 31.0883H112.294V65.0932H87.957V31.0883Z" fill="white"/>
</mask>
<g mask="url(#mask1)">
<path fill-rule="evenodd" clip-rule="evenodd" d="M111.903 55.1041L111.849 55.6276L111.768 56.1419L111.661 56.646L111.528 57.1429L111.369 57.6306L111.187 58.1081L110.981 58.5744L110.752 59.0294L110.501 59.4731L110.228 59.9056L109.934 60.3238L109.62 60.7287L109.287 61.1193L108.936 61.4956L108.565 61.8565L108.177 62.2011L107.774 62.5303L107.354 62.8411L106.918 63.1366L106.469 63.4117L106.005 63.6693L105.528 63.9066L105.038 64.1254L104.535 64.3217L104.023 64.4996L103.499 64.653L102.965 64.7849L102.422 64.8953L101.87 64.9822L101.311 65.0446L100.744 65.0804L100.171 65.0936L99.601 65.0804L99.037 65.0415L98.48 64.9781L97.93 64.8902L97.39 64.7797L96.858 64.6468L96.335 64.4904L95.821 64.3125L95.32 64.1151L94.83 63.8953L94.352 63.6571L93.887 63.3984L93.437 63.1223L93 62.8278L92.579 62.515L92.173 62.1857L91.784 61.8401L91.412 61.4782L91.059 61.1009L90.723 60.7103L90.408 60.3044L90.112 59.8862L89.839 59.4537L89.586 59.0099L89.354 58.5539L89.147 58.0866L88.965 57.6102L88.805 57.1225L88.671 56.6255L88.563 56.1215L88.482 55.6072L88.429 55.0847L87.97 37.9184H87.96L87.957 36.3131L93.105 32.7181L95.44 34.3479L100.115 31.0883L104.799 34.3571L107.129 32.7345L112.294 36.3397L111.903 55.1041Z" fill="#1D1D1B"/>
</g>
<path fill-rule="evenodd" clip-rule="evenodd" d="M106.814 32.9958L111.613 36.328L111.594 37.3474L88.024 37.3229L88 36.2994L92.791 32.9805L95.126 34.6113L99.799 31.3517L104.484 34.6195L106.814 32.9958Z" fill="#FEFEFE"/>
<path fill-rule="evenodd" clip-rule="evenodd" d="M99.7629 38.509H88L88.458 55.6446C89.068 61.5943 94.2 65.1351 99.7629 65.2854V38.509Z" fill="#E20714"/>
<path fill-rule="evenodd" clip-rule="evenodd" d="M100 38.509H111.763L111.305 55.6446C110.695 61.5943 105.563 65.1351 100 65.2854V38.509Z" fill="#FEFEFE"/>
<path fill-rule="evenodd" clip-rule="evenodd" d="M98.9182 60.8776C98.8312 60.8776 98.7692 60.8868 98.7322 60.9032C98.7362 60.9512 98.7652 61.0228 98.8182 61.1138C98.8942 61.2447 98.9652 61.3786 99.0212 61.5208C99.0822 61.6762 99.1192 61.8347 99.1172 61.9972C99.1132 62.3203 98.9892 62.6986 98.7272 62.9686C98.5122 63.1915 98.2102 63.3438 97.8112 63.3418C97.4422 63.3377 97.1252 63.1905 96.8922 62.9543C96.6532 62.7109 96.5052 62.3755 96.4882 62.0115C96.4712 61.6363 96.6332 61.3541 96.7672 61.1199C96.8242 61.0218 96.9272 61.0054 96.8972 60.9748C96.8862 60.9625 96.8242 61.0279 96.7192 61.077C96.5672 61.1496 96.3972 61.2294 96.1892 61.26C96.1392 61.2672 96.0882 61.2713 96.0372 61.2713C95.7302 61.2774 95.4892 61.1608 95.3142 60.9778C95.1472 60.803 95.0452 60.5668 95.0132 60.3224C95.0052 60.2692 95.0012 60.214 95.0002 60.1558C94.9992 60.0821 95.0022 60.0095 95.0132 59.94C95.0452 59.6987 95.1422 59.4676 95.3032 59.2928C95.4712 59.1087 95.7042 58.9881 96.0002 58.982C96.0622 58.982 96.1252 58.986 96.1892 58.9952C96.3972 59.0249 96.5672 59.1047 96.7192 59.1762C96.8242 59.2263 96.8862 59.2918 96.8972 59.2795C96.9272 59.2478 96.8242 59.2335 96.7672 59.1333C96.6332 58.9002 96.4712 58.6169 96.4882 58.2427C96.5052 57.8777 96.6532 57.5423 96.8922 57.3C97.1252 57.0648 97.4422 56.9155 97.8112 56.9135C98.2102 56.9104 98.5122 57.0618 98.7272 57.2857C98.9892 57.5556 99.1132 57.9329 99.1172 58.257C99.1192 58.4206 99.0822 58.5781 99.0212 58.7325C98.9652 58.8756 98.8942 59.0096 98.8182 59.1384C98.7652 59.2314 98.7362 59.301 98.7322 59.3511C98.7692 59.3674 98.8312 59.3766 98.9182 59.3766V59.9431C98.7182 59.9431 98.5582 59.9063 98.4382 59.8327C98.3532 59.7805 98.2882 59.714 98.2442 59.6333C98.1982 59.5515 98.1772 59.4605 98.1772 59.3623C98.1772 59.213 98.2312 59.0402 98.3412 58.8511C98.4072 58.7376 98.4682 58.6261 98.5072 58.5239C98.5432 58.4329 98.5652 58.345 98.5642 58.2642C98.5612 58.0679 98.4882 57.8429 98.3342 57.6814C98.2142 57.5597 98.0452 57.4769 97.8142 57.4789C97.6012 57.4799 97.4162 57.5648 97.2832 57.7008C97.1392 57.846 97.0512 58.0495 97.0422 58.2703C97.0312 58.4769 97.1472 58.6803 97.2442 58.848C97.4182 59.1517 97.5552 59.392 97.3012 59.668C97.0382 59.9523 96.7912 59.8347 96.4862 59.6905C96.3702 59.6353 96.2382 59.574 96.1122 59.5556C96.0752 59.5505 96.0392 59.5474 96.0092 59.5474C95.8782 59.5505 95.7782 59.6006 95.7082 59.6783C95.6282 59.7652 95.5792 59.8868 95.5612 60.0177C95.5542 60.0617 95.5522 60.1057 95.5532 60.1466C95.5532 60.1762 95.5562 60.2089 95.5612 60.2447C95.5792 60.3756 95.6292 60.4983 95.7102 60.5821C95.7832 60.6609 95.8902 60.7089 96.0282 60.7058C96.0532 60.7058 96.0812 60.7028 96.1122 60.6997C96.2382 60.6813 96.3702 60.6189 96.4862 60.5627C96.7912 60.4185 97.0382 60.302 97.3012 60.5862C97.5552 60.8623 97.4182 61.1015 97.2442 61.4062C97.1472 61.5739 97.0312 61.7764 97.0422 61.9839C97.0512 62.2048 97.1392 62.4083 97.2832 62.5535C97.4162 62.6894 97.6012 62.7733 97.8142 62.7753C98.0452 62.7774 98.2142 62.6946 98.3342 62.5719C98.4882 62.4113 98.5612 62.1854 98.5642 61.9901C98.5652 61.9093 98.5432 61.8214 98.5072 61.7304C98.4682 61.6281 98.4072 61.5156 98.3412 61.4032C98.2312 61.214 98.1772 61.0422 98.1772 60.8919H98.1782C98.1782 60.7928 98.1992 60.7018 98.2442 60.622C98.2882 60.5402 98.3532 60.4727 98.4382 60.4226C98.5582 60.348 98.7182 60.3112 98.9182 60.3091V60.8776ZM99.6452 61.1537V59.1016C99.5552 59.1036 99.4672 59.165 99.4672 59.2846V59.3715C99.4652 59.2141 99.2062 59.2151 99.2062 59.3725V60.8817C99.2062 61.0392 99.4652 61.0392 99.4672 60.8827V60.9696C99.4672 61.0903 99.5552 61.1506 99.6452 61.1537Z" fill="#FECB00"/>
<path fill-rule="evenodd" clip-rule="evenodd" d="M99.2209 59.4298C99.2649 59.3051 99.3929 59.2478 99.5139 59.257C99.6379 59.0515 99.9649 59.0515 100.087 59.257C100.189 59.2488 100.298 59.2887 100.355 59.3766H104.44H104.591V60.2539H100.397V60.3091H104.591V61.1874H103.905V61.2324H104.321V61.9676H103.905V62.0821H104.321V63.2426H103.602V62.8183H103.489V63.2426H102.769V62.0821H103.186V61.9676H102.769V61.5412H102.656V61.9676H102.241V62.0821H102.656V63.2426H101.937V62.8183H101.824V63.2426H101.105V62.0821H101.522V61.9676H101.105V61.2324H101.522V61.1874H100.355C100.298 61.2754 100.189 61.3153 100.087 61.3071C99.9649 61.5116 99.6379 61.5116 99.5139 61.3071C99.3929 61.3163 99.2649 61.26 99.2209 61.1343V61.1874H99.0979C99.0979 61.1885 99.0989 61.1895 99.0989 61.1905C99.4679 61.8234 99.6059 62.6087 99.0529 63.1813C98.7999 63.442 98.4489 63.5933 98.0919 63.6301C97.1899 63.7191 96.5319 63.1046 96.4889 62.1731C96.4759 61.9185 96.5349 61.7048 96.6309 61.4952C96.1819 61.6445 95.7289 61.6322 95.3559 61.2406C94.8839 60.7457 94.8829 59.8449 95.3439 59.3419C95.7129 58.937 96.1759 58.9196 96.6319 59.0689C96.5349 58.8603 96.4759 58.6456 96.4889 58.391C96.5269 57.571 97.1489 56.9196 97.9609 56.9135C98.7919 56.9064 99.4109 57.572 99.4199 58.4104C99.4239 58.7591 99.2699 59.0791 99.0989 59.3726C99.0989 59.3746 99.0979 59.3756 99.0979 59.3766H99.2209V59.4298ZM99.2039 60.2539C98.7219 60.2529 98.1769 60.1333 98.1769 59.5177C98.1769 59.3092 98.2589 59.1036 98.3629 58.9268C98.4379 58.7969 98.5649 58.575 98.5639 58.4206C98.5599 58.0648 98.3249 57.7857 97.9679 57.7877C97.6129 57.7918 97.3599 58.0781 97.3429 58.4319C97.3349 58.5996 97.4469 58.7867 97.5249 58.9247C97.7249 59.2734 97.8809 59.5852 97.5619 59.9278C97.2439 60.2734 96.9379 60.1599 96.5739 59.986C96.4049 59.9063 96.1269 59.7672 95.9699 59.939C95.8209 60.1026 95.8169 60.4686 95.9699 60.6302C96.1269 60.7948 96.4089 60.6568 96.5739 60.5781C96.9379 60.4053 97.2439 60.2918 97.5619 60.6363C97.8809 60.9799 97.7249 61.2907 97.5249 61.6384C97.4469 61.7774 97.3349 61.9655 97.3429 62.1322C97.3909 63.169 99.1059 62.9144 98.3629 61.6373C98.1289 61.2365 98.0579 60.7202 98.5109 60.4441C98.7309 60.3091 98.9599 60.3112 99.2039 60.3091V60.2539Z" fill="#1D1D1B"/>
<path fill-rule="evenodd" clip-rule="evenodd" d="M91.8306 30.2469L91.4566 29.386C91.4076 29.2714 91.4186 29.2868 91.3726 29.3952L91.0026 30.2469L90.0876 30.344C89.9646 30.3563 89.9826 30.3501 90.0706 30.4289L90.7476 31.0516L90.5546 31.9718C90.5286 32.0945 90.5286 32.0751 90.6296 32.0158L91.4166 31.5485L92.2126 32.0209C92.3186 32.0843 92.3016 32.0791 92.2776 31.9616L92.0856 31.0516L92.7707 30.4227C92.8637 30.3389 92.8517 30.3553 92.7357 30.343L91.8306 30.2469Z" fill="#FECB00"/>
<path fill-rule="evenodd" clip-rule="evenodd" d="M87.8303 32.2922L87.4563 31.4313C87.4073 31.3158 87.4193 31.3321 87.3723 31.4405L87.0023 32.2922L86.0873 32.3894C85.9652 32.4016 85.9822 32.3955 86.0703 32.4742L86.7473 33.0969L86.5543 34.0171C86.5283 34.1398 86.5283 34.1204 86.6293 34.0601L87.4163 33.5938L88.2123 34.0662C88.3183 34.1296 88.3013 34.1245 88.2773 34.0069L88.0853 33.0969L88.7703 32.4681C88.8633 32.3842 88.8513 32.4006 88.7353 32.3873L87.8303 32.2922Z" fill="#FECB00"/>
<mask id="mask2" mask-type="alpha" maskUnits="userSpaceOnUse" x="98" y="27" width="4" height="3">
<path fill-rule="evenodd" clip-rule="evenodd" d="M98.7188 27H101.552V29.7552H98.7188V27Z" fill="white"/>
</mask>
<g mask="url(#mask2)">
<path fill-rule="evenodd" clip-rule="evenodd" d="M98.7885 28.1229L99.4655 28.7435L99.2735 29.6648C99.2475 29.7875 99.2465 29.7681 99.3485 29.7077L100.135 29.2415L100.932 29.7128C101.038 29.7762 101.019 29.7711 100.995 29.6546L100.804 28.7435L101.49 28.1168C101.581 28.0319 101.571 28.0472 101.455 28.036L100.548 27.9388L100.175 27.08C100.126 26.9644 100.137 26.9798 100.09 27.0892L99.7215 27.9388L98.8065 28.036C98.6835 28.0493 98.7015 28.0421 98.7885 28.1229Z" fill="#FECB00"/>
</g>
<path fill-rule="evenodd" clip-rule="evenodd" d="M96.213 29.9758C96.319 30.0392 96.301 30.0341 96.276 29.9165L96.086 29.0065L96.771 28.3777C96.862 28.2938 96.852 28.3112 96.735 28.2979L95.831 28.2018L95.457 27.3409C95.407 27.2264 95.419 27.2417 95.371 27.3511L95.003 28.2018L94.087 28.299C93.965 28.3122 93.983 28.3051 94.069 28.3838L94.747 29.0065L94.554 29.9267C94.528 30.0494 94.527 30.03 94.629 29.9707L95.417 29.5034L96.213 29.9758Z" fill="#FECB00"/>
<path fill-rule="evenodd" clip-rule="evenodd" d="M104.83 28.2018L104.456 27.3419C104.407 27.2263 104.419 27.2417 104.372 27.3501L104.002 28.2018L103.087 28.2989C102.965 28.3122 102.982 28.3061 103.07 28.3848L103.747 29.0065L103.554 29.9267C103.528 30.0494 103.528 30.03 103.629 29.9707L104.416 29.5034L105.212 29.9758C105.318 30.0392 105.301 30.034 105.277 29.9165L105.086 29.0065L105.77 28.3776C105.863 28.2938 105.851 28.3102 105.735 28.2979L104.83 28.2018Z" fill="#FECB00"/>
<path fill-rule="evenodd" clip-rule="evenodd" d="M112.736 32.3879L111.831 32.2918L111.458 31.4309C111.407 31.3164 111.42 31.3317 111.372 31.4401L111.004 32.2918L110.087 32.3889C109.965 32.4022 109.984 32.3951 110.069 32.4738L110.748 33.0965L110.554 34.0167C110.529 34.1394 110.528 34.12 110.629 34.0607L111.417 33.5934L112.213 34.0658C112.319 34.1292 112.302 34.1241 112.277 34.0065L112.087 33.0965L112.771 32.4677C112.862 32.3838 112.852 32.4012 112.736 32.3879Z" fill="#FECB00"/>
<path fill-rule="evenodd" clip-rule="evenodd" d="M108.831 30.2469L108.457 29.386C108.408 29.2714 108.419 29.2868 108.373 29.3952L108.003 30.2469L107.087 30.344C106.965 30.3563 106.983 30.3501 107.07 30.4289L107.748 31.0516L107.555 31.9718C107.529 32.0945 107.529 32.0751 107.63 32.0158L108.417 31.5485L109.213 32.0209C109.319 32.0843 109.302 32.0791 109.277 31.9616L109.086 31.0516L109.771 30.4227C109.863 30.3389 109.852 30.3553 109.736 30.343L108.831 30.2469Z" fill="#FECB00"/>
<mask id="mask3" mask-type="alpha" maskUnits="userSpaceOnUse" x="13" y="27" width="183" height="39">
<path fill-rule="evenodd" clip-rule="evenodd" d="M13 65.355H195.952V27.2618H13V65.355Z" fill="white"/>
</mask>
<g mask="url(#mask3)">
<path fill-rule="evenodd" clip-rule="evenodd" d="M100 59.5259H104.05V58.9584H100V59.5259Z" fill="#FECB00"/>
<path fill-rule="evenodd" clip-rule="evenodd" d="M100 60.5494H101.283V60.9042H100.867V61.3295H101.283V61.7538H100.867V62.6056H101.283V62.1802H101.7V62.6056H102.116V61.7538H101.7V61.3295H102.116V60.9042H102.531V61.3295H102.947V61.7538H102.531V62.6056H102.947V62.1802H103.364V62.6056H103.78V61.7538H103.364V61.3295H103.78V60.9042H103.364V60.5494H104.051V59.9809H100V60.5494Z" fill="#FECB00"/>
<path fill-rule="evenodd" clip-rule="evenodd" d="M99.0351 60.8776V60.3091C98.8351 60.3112 98.5571 60.348 98.4371 60.4226C98.0611 60.6516 98.1541 61.079 98.3411 61.4032C99.2161 62.9052 97.1011 63.2784 97.0401 61.9839C97.0321 61.7764 97.1481 61.5739 97.2441 61.4062C97.4191 61.1015 97.5561 60.8623 97.3011 60.5862C97.0381 60.302 96.7911 60.4185 96.4861 60.5627C96.2521 60.6741 95.9291 60.8132 95.7101 60.5821C95.4991 60.3633 95.5031 59.9022 95.7081 59.6783C95.9261 59.44 96.2481 59.578 96.4861 59.6905C96.7911 59.8347 97.0381 59.9523 97.3011 59.668C97.5561 59.392 97.4191 59.1517 97.2441 58.848C97.1481 58.6803 97.0321 58.4768 97.0401 58.2703C97.0621 57.8327 97.3791 57.482 97.8151 57.4789C98.2551 57.4748 98.5591 57.8214 98.5641 58.2642C98.5671 58.4564 98.4351 58.6895 98.3411 58.8511C98.2311 59.0402 98.1771 59.213 98.1771 59.3623C98.1771 59.7897 98.6691 59.9431 99.0351 59.9431V59.3766C98.8021 59.3766 98.7011 59.3419 98.8181 59.1384C98.9731 58.8725 99.1211 58.575 99.1171 58.257C99.1091 57.5014 98.5561 56.9084 97.8111 56.9135C97.0791 56.9196 96.5231 57.5055 96.4891 58.2427C96.4711 58.6169 96.6331 58.9002 96.7671 59.1333C96.8241 59.2335 96.9281 59.2478 96.8971 59.2795C96.8861 59.2918 96.8241 59.2263 96.7181 59.1762C96.2371 58.9482 95.7081 58.849 95.3031 59.2928C94.8961 59.7365 94.8981 60.5412 95.3141 60.9788C95.7251 61.4103 96.2481 61.3009 96.7181 61.077C96.8241 61.0279 96.8861 60.9625 96.8971 60.9747C96.9281 61.0054 96.8241 61.0218 96.7671 61.1199C96.6331 61.3541 96.4711 61.6363 96.4891 62.0115C96.5911 64.2456 100.162 63.4297 98.8181 61.1138C98.7001 60.9114 98.8021 60.8776 99.0351 60.8776Z" fill="#FECB00"/>
<path fill-rule="evenodd" clip-rule="evenodd" d="M99.625 59.2283V59.1424C99.625 58.8971 99.262 58.8971 99.262 59.1424V59.2283C99.259 59.0719 99 59.0729 99 59.2294V60.7406C99 60.896 99.259 60.898 99.262 60.7406V60.8265C99.262 61.0729 99.625 61.0729 99.625 60.8265V60.7406C99.627 60.898 99.888 60.896 99.888 60.7406V59.2294C99.888 59.0729 99.627 59.0719 99.625 59.2283Z" fill="#FECB00"/>
<path fill-rule="evenodd" clip-rule="evenodd" d="M99.3189 47.564H98.6799V46.9525C98.6799 46.9004 98.6379 46.8615 98.5879 46.8615H97.6769C97.6259 46.8615 97.5879 46.9035 97.5879 46.9556V47.564H96.7359V46.9525C96.7359 46.9004 96.6949 46.8615 96.6449 46.8615H95.7349C95.6829 46.8615 95.6449 46.9035 95.6449 46.9556V47.564H95.3549L95.1859 45.1376L95.6779 44.7716C95.7029 44.7563 95.7199 44.7276 95.7199 44.6949V43.4475C95.7199 43.3943 95.6779 43.3555 95.6269 43.3555H95.0469L93.1889 40.967V40.695H94.7099C94.7309 40.695 94.7539 40.6858 94.7719 40.6694C94.8069 40.6357 94.8079 40.5774 94.7749 40.5416L94.3769 40.1132L94.7709 39.6899C94.7879 39.6736 94.7989 39.649 94.7989 39.6224C94.7989 39.5723 94.7589 39.5314 94.7099 39.5314H93.9029H93.1009H93.0989C93.0489 39.5314 93.0089 39.5723 93.0089 39.6224V40.6009V40.603V40.6101V40.9527L91.2178 43.3555H90.5988C90.5498 43.3555 90.5088 43.3974 90.5088 43.4475V44.6929C90.5088 44.7266 90.5248 44.7532 90.5508 44.7716L91.0438 45.1376L90.5158 52.6835L90.3748 52.6743C90.3258 52.6712 90.2838 52.707 90.2798 52.7571L90.0008 54.8757C89.9938 54.9309 90.0318 54.9728 90.0838 54.9789C91.0938 55.0403 92.1018 55.162 93.1149 55.162C94.1279 55.162 95.1349 55.0403 96.1449 54.9789C96.2019 54.9759 96.2339 54.9268 96.2269 54.8706L96.2069 54.7121H97.0949V54.8787C97.0949 54.9288 97.1359 54.9708 97.1849 54.9708H98.2389C98.2889 54.9708 98.3289 54.9288 98.3289 54.8787C98.3289 53.9156 98.3319 52.9544 98.3319 51.9933C98.3319 51.4197 98.7859 50.9698 99.3309 50.9698C99.4099 50.9698 99.4109 50.933 99.4109 50.8482V47.656C99.4109 47.6028 99.3689 47.564 99.3189 47.564ZM93.5238 48.1826H92.7048L92.5698 46.4423C92.5698 45.61 93.6588 45.6059 93.6588 46.4423L93.5238 48.1826Z" fill="#FEFEFE"/>
<path fill-rule="evenodd" clip-rule="evenodd" d="M109.131 52.7571C109.127 52.708 109.086 52.6712 109.036 52.6743L108.896 52.6835L108.368 45.1387L108.86 44.7716C108.887 44.7542 108.902 44.7266 108.902 44.6929V43.4485C108.902 43.3964 108.861 43.3565 108.812 43.3565H108.193L106.402 40.9537V40.696H107.923V40.695C107.946 40.695 107.968 40.6868 107.985 40.6705C108.021 40.6357 108.022 40.5774 107.988 40.5406L107.591 40.1142L107.985 39.6899C108.002 39.6725 108.013 39.65 108.013 39.6235C108.013 39.5734 107.973 39.5314 107.923 39.5314H107.117H106.315H106.313C106.263 39.5314 106.223 39.5734 106.223 39.6235V40.602V40.604V40.6101V40.968L104.365 43.3565H103.784C103.734 43.3565 103.692 43.3954 103.692 43.4485V44.6959C103.692 44.7276 103.708 44.7552 103.734 44.7716L104.226 45.1387L104.056 47.565H103.766V46.9556C103.766 46.9035 103.728 46.8615 103.676 46.8615H102.767C102.716 46.8615 102.675 46.9004 102.675 46.9525V47.565H101.824V46.9556C101.824 46.9035 101.786 46.8615 101.734 46.8615H100.824C100.774 46.8615 100.732 46.9004 100.732 46.9525V47.565H100.092C100.042 47.565 100 47.6028 100 47.655V50.8482C100 50.934 100.002 50.9698 100.08 50.9698C100.625 50.9698 101.08 51.4207 101.08 51.9923C101.08 52.9534 101.082 53.9166 101.082 54.8798C101.082 54.9299 101.123 54.9697 101.172 54.9697H102.226C102.276 54.9697 102.316 54.9299 102.316 54.8798V54.7111H103.204L103.184 54.8716C103.178 54.9278 103.21 54.9759 103.266 54.98C104.277 55.0413 105.284 55.163 106.296 55.163C107.31 55.163 108.317 55.0413 109.327 54.98C109.379 54.9738 109.418 54.9309 109.411 54.8767L109.131 52.7571ZM106.682 48.113H105.911L105.784 46.475C105.784 45.6908 106.81 45.6867 106.81 46.475L106.682 48.113Z" fill="#E20714"/>
<path fill-rule="evenodd" clip-rule="evenodd" d="M108.362 52.7571C108.358 52.708 108.317 52.6712 108.267 52.6743L108.127 52.6835L107.599 45.1387L108.091 44.7716C108.118 44.7542 108.133 44.7266 108.133 44.6929V43.4485C108.133 43.3964 108.092 43.3565 108.043 43.3565H107.424L105.633 40.9537V40.696H107.154V40.695C107.177 40.695 107.199 40.6868 107.216 40.6705C107.252 40.6357 107.253 40.5774 107.219 40.5406L106.822 40.1142L107.216 39.6899C107.233 39.6725 107.244 39.65 107.244 39.6235C107.244 39.5734 107.204 39.5314 107.154 39.5314H106.348H105.546H105.544C105.494 39.5314 105.454 39.5734 105.454 39.6235V40.602V40.604V40.6101V40.968L103.596 43.3565H103.015C102.965 43.3565 102.923 43.3954 102.923 43.4485V44.6959C102.923 44.7276 102.939 44.7552 102.965 44.7716L103.457 45.1387L103.287 47.565H102.997V46.9556C102.997 46.9035 102.959 46.8615 102.907 46.8615H101.998C101.947 46.8615 101.906 46.9004 101.906 46.9525V47.565H101.055V46.9556C101.055 46.9035 101.017 46.8615 100.965 46.8615H100.055C100.005 46.8615 99.9629 46.9004 99.9629 46.9525V47.565H98.6789V46.9525C98.6789 46.9004 98.6369 46.8615 98.5869 46.8615H97.6769C97.6269 46.8615 97.5889 46.9035 97.5889 46.9556V47.565H96.7369V46.9525C96.7369 46.9004 96.6949 46.8615 96.6439 46.8615H95.7348C95.6838 46.8615 95.6448 46.9035 95.6448 46.9556V47.565H95.3548L95.1848 45.1387L95.6768 44.7716C95.7028 44.7552 95.7188 44.7276 95.7188 44.6959V43.4485C95.7188 43.3954 95.6768 43.3565 95.6268 43.3565H95.0458L93.1878 40.968V40.696H94.7098V40.695C94.7318 40.695 94.7538 40.6868 94.7718 40.6705C94.8068 40.6357 94.8078 40.5774 94.7738 40.5406L94.3768 40.1142L94.7718 39.6899C94.7878 39.6725 94.7988 39.65 94.7988 39.6235C94.7988 39.5734 94.7588 39.5314 94.7098 39.5314H93.9038H93.1008H93.0978C93.0488 39.5314 93.0078 39.5734 93.0078 39.6235V40.602V40.604L93.0098 40.6101V40.9527L91.2178 43.3565H90.5988C90.5498 43.3565 90.5098 43.3964 90.5098 43.4485V44.6929C90.5098 44.7266 90.5248 44.7542 90.5508 44.7716L91.0448 45.1387L90.5148 52.6835L90.3748 52.6743C90.3268 52.6712 90.2838 52.708 90.2798 52.7571L90.0008 54.8767C89.9938 54.9309 90.0318 54.9738 90.0838 54.98C91.0938 55.0413 92.1008 55.163 93.1148 55.163C94.1268 55.163 95.1338 55.0413 96.1448 54.98C96.2008 54.9759 96.2348 54.9278 96.2278 54.8716L96.2068 54.7111H97.0959V54.8798C97.0959 54.9299 97.1349 54.9697 97.1849 54.9697H98.2399C98.2899 54.9697 98.3289 54.9299 98.3289 54.8798C98.3289 53.9166 98.3309 52.9534 98.3309 51.9923C98.3309 51.4248 98.7789 50.977 99.3209 50.9719C99.8619 50.977 100.311 51.4248 100.311 51.9923C100.311 52.9534 100.313 53.9166 100.313 54.8798C100.313 54.9299 100.354 54.9697 100.403 54.9697H101.457C101.507 54.9697 101.547 54.9299 101.547 54.8798V54.7111H102.435L102.415 54.8716C102.409 54.9278 102.441 54.9759 102.497 54.98C103.508 55.0413 104.515 55.163 105.527 55.163C106.541 55.163 107.548 55.0413 108.558 54.98C108.61 54.9738 108.649 54.9309 108.642 54.8767L108.362 52.7571ZM105.633 39.7155H106.348H106.946L106.634 40.0508C106.6 40.0866 106.602 40.1408 106.634 40.1776L106.946 40.512H105.633V39.7155ZM93.1879 39.7155H93.9038H94.5018L94.1888 40.0508C94.1558 40.0866 94.1558 40.1408 94.1888 40.1776L94.5018 40.512H93.1879V39.7155ZM91.3489 43.4812L93.0939 41.1398L94.8799 43.4373V43.4495V43.9751H94.3999V43.4485C94.3999 43.3954 94.3579 43.3565 94.3069 43.3565H93.4489C93.3969 43.3565 93.3589 43.3984 93.3589 43.4495V43.9751H92.8689V43.4485C92.8689 43.3964 92.8299 43.3565 92.7809 43.3565H91.9199C91.8709 43.3565 91.8299 43.3964 91.8299 43.4485V43.9751H91.3489V43.4812ZM90.6888 43.5385H91.1698V44.0671C91.1698 44.1193 91.2118 44.1571 91.2618 44.1571H91.9198C91.9718 44.1571 92.0098 44.1162 92.0098 44.0651V43.5385H92.6908V44.0671C92.6908 44.1193 92.7318 44.1571 92.7818 44.1571H93.4488C93.5008 44.1571 93.5388 44.1162 93.5388 44.0651V43.5385H94.2198V44.0671C94.2198 44.1172 94.2598 44.1571 94.3098 44.1571H94.9688C95.0178 44.1571 95.0588 44.1172 95.0588 44.0671V43.5385H95.5398V44.6039H90.6888V43.5385ZM90.8749 44.7869H95.3539L95.0639 45.0027H91.1659L90.8749 44.7869ZM91.2199 45.1847H95.0089L95.5359 52.6978C94.7309 52.7632 93.9209 52.8542 93.1149 52.8573C92.3059 52.8542 91.4989 52.7632 90.6938 52.6978L91.2199 45.1847ZM95.7818 52.8624L95.9038 53.7867C95.3178 53.844 94.7308 53.9176 94.1418 53.9646C94.1418 53.7561 94.1398 53.1957 94.1368 52.9994C94.6868 52.9596 95.2348 52.9013 95.7818 52.8624ZM93.9639 53.9769C93.3889 54.0178 92.8389 54.0178 92.2659 53.9769C92.2659 53.7775 92.2669 53.2039 92.2699 53.0107C92.8399 53.0475 93.3879 53.0475 93.9589 53.0107C93.9619 53.2101 93.9629 53.7837 93.9639 53.9769ZM90.4469 52.8624C90.9948 52.9013 91.5428 52.9596 92.0908 52.9994C92.0888 53.1896 92.0858 53.7509 92.0858 53.9646C91.4978 53.9176 90.9118 53.844 90.3239 53.7867L90.4469 52.8624ZM93.1148 54.98C92.1378 54.98 91.1648 54.8654 90.1898 54.8031L90.2998 53.9687C91.2368 54.0577 92.1718 54.1927 93.1148 54.1927C94.0558 54.1927 94.9918 54.0577 95.9278 53.9687L96.0378 54.8031C95.0638 54.8654 94.0918 54.98 93.1148 54.98ZM97.2748 54.7877H98.1508V53.9687H97.2748V54.7877ZM97.3938 53.7847H98.1508V53.2223H97.3938V53.7847ZM97.4648 53.0393H98.1508V52.8307H97.4648V53.0393ZM97.3229 52.6477H98.1509V52.0853H97.3229V52.6477ZM98.1548 51.9013H97.3508C97.3638 51.5813 97.4498 51.2796 97.5928 51.0158L98.2808 51.4443C98.2108 51.5823 98.1678 51.7377 98.1548 51.9013ZM98.3739 51.2888C97.7858 50.9218 97.7088 50.8737 97.3938 50.6764C97.5428 50.4463 97.7298 50.2439 97.9458 50.0803C98.1448 50.3758 98.1298 50.3553 98.5939 51.0516C98.5109 51.1201 98.4379 51.1999 98.3739 51.2888ZM98.7428 50.9484L98.2878 50.2674C98.4308 50.1774 98.5858 50.1048 98.7488 50.0537C98.8158 50.3195 98.8828 50.5854 98.9498 50.8512C98.8768 50.8768 98.8078 50.9095 98.7428 50.9484ZM99.2309 50.7919C99.1949 50.795 99.1589 50.7991 99.1219 50.8062C98.9239 50.021 98.8869 49.8768 98.6979 49.1314C98.8739 49.0905 99.0509 49.067 99.2309 49.0619V50.7919ZM99.2308 48.8778C99.0068 48.886 98.7828 48.9198 98.5668 48.976C98.5188 48.9893 98.4908 49.0384 98.5018 49.0875C98.5698 49.3502 98.6368 49.613 98.7048 49.8758C98.5208 49.9341 98.3478 50.0138 98.1868 50.1161L98.0438 49.9003C98.0158 49.8594 97.9608 49.8482 97.9188 49.8768C97.6298 50.0772 97.3728 50.3512 97.1928 50.658C97.1658 50.7009 97.1798 50.7561 97.2208 50.7837L97.4408 50.9197C97.2768 51.2203 97.1798 51.5629 97.1698 51.9279C97.1528 51.9453 97.1428 51.9688 97.1428 51.9954V52.7377C97.1428 52.8287 97.2228 52.8297 97.2848 52.8297V53.0403C97.2418 53.0495 97.2138 53.0884 97.2138 53.1324V53.7847H97.1848C97.1348 53.7847 97.0958 53.8256 97.0958 53.8767V54.5291H96.1818L95.9478 52.754C95.9438 52.7172 95.8548 52.6743 95.8548 52.6743L95.7128 52.6835L95.4308 48.6488H99.2308V48.8778ZM99.2308 48.4668H95.4178L95.4048 48.2848H99.2308V48.4668ZM99.2308 48.1028H95.3928L95.3668 47.747H95.7348C95.7838 47.747 95.8238 47.7061 95.8238 47.655V47.0446H96.5568V47.655C96.5568 47.7061 96.5978 47.747 96.6468 47.747H97.6768C97.7258 47.747 97.7668 47.7061 97.7668 47.655V47.0446H98.4998V47.655C98.4998 47.7061 98.5398 47.747 98.5898 47.747H99.2308V48.1028ZM108.196 52.8624L108.318 53.7867C107.73 53.844 107.145 53.9176 106.556 53.9646C106.556 53.7509 106.555 53.1896 106.551 52.9994C107.1 52.9596 107.647 52.9013 108.196 52.8624ZM105.549 41.1398L107.293 43.4812V43.9751H106.812V43.4485C106.812 43.3964 106.771 43.3565 106.722 43.3565H105.862C105.813 43.3565 105.773 43.3964 105.773 43.4485V43.9751H105.283V43.4495C105.283 43.3984 105.245 43.3565 105.193 43.3565H104.335C104.284 43.3565 104.244 43.3954 104.244 43.4485V43.9751H103.763V43.4495C103.763 43.4465 103.762 43.4403 103.762 43.4373L105.549 41.1398ZM103.102 43.5385H103.583V44.0671C103.583 44.1172 103.624 44.1571 103.673 44.1571H104.334C104.383 44.1571 104.423 44.1172 104.423 44.0671V43.5385H105.103V44.0651C105.103 44.1162 105.141 44.1571 105.193 44.1571H105.86C105.911 44.1571 105.951 44.1193 105.951 44.0671V43.5385H106.633V44.0651C106.633 44.1162 106.671 44.1571 106.722 44.1571H107.38C107.43 44.1571 107.472 44.1193 107.472 44.0671V43.5385H107.953V44.6039H103.102V43.5385ZM103.288 44.7869H107.767L107.476 45.0027H103.578L103.288 44.7869ZM103.633 45.1847H107.423L107.948 52.6978C107.143 52.7632 106.336 52.8542 105.527 52.8573C104.721 52.8542 103.912 52.7632 103.108 52.6978L103.633 45.1847ZM106.378 53.9769C105.803 54.0178 105.253 54.0178 104.679 53.9769C104.679 53.7837 104.68 53.2101 104.683 53.0107C105.254 53.0475 105.802 53.0475 106.374 53.0107C106.375 53.2039 106.376 53.7775 106.378 53.9769ZM104.505 52.9994C104.502 53.1957 104.501 53.7561 104.5 53.9646C103.911 53.9176 103.325 53.844 102.738 53.7867L102.86 52.8624C103.409 52.9013 103.955 52.9596 104.505 52.9994ZM99.4109 47.747H100.052C100.102 47.747 100.142 47.7061 100.142 47.655V47.0446H100.875V47.655C100.875 47.7061 100.916 47.747 100.965 47.747H101.995C102.045 47.747 102.085 47.7061 102.085 47.655V47.0446H102.818V47.655C102.818 47.7061 102.858 47.747 102.907 47.747H103.275L103.249 48.1028H99.4109V47.747ZM99.4109 48.2848H103.237L103.224 48.4668H99.4109V48.2848ZM99.4109 50.7919V49.0619C99.5909 49.067 99.7679 49.0905 99.9439 49.1314C99.7549 49.8768 99.7179 50.021 99.5199 50.8062C99.4839 50.7991 99.4469 50.795 99.4109 50.7919ZM99.8998 50.9484C99.8348 50.9095 99.7648 50.8768 99.6918 50.8512C99.7588 50.5854 99.8258 50.3195 99.8928 50.0537C100.056 50.1048 100.212 50.1774 100.354 50.2674L99.8998 50.9484ZM100.268 51.2888C100.206 51.1999 100.131 51.1201 100.048 51.0516C100.512 50.3553 100.498 50.3758 100.695 50.0803C100.912 50.2439 101.1 50.4463 101.25 50.6764C100.933 50.8737 100.856 50.9218 100.268 51.2888ZM100.361 51.4443L101.05 51.0158C101.192 51.2796 101.279 51.5813 101.293 51.9013H100.487C100.475 51.7377 100.431 51.5823 100.361 51.4443ZM100.493 53.7847H101.25V53.2223H100.493V53.7847ZM100.493 53.0383H101.179V52.8297H100.493V53.0383ZM100.493 52.6467H101.321V52.0843H100.493V52.6467ZM100.492 54.7877H101.367V53.9687H100.492V54.7877ZM102.46 54.5291H101.547V53.8767C101.547 53.8256 101.507 53.7847 101.457 53.7847H101.428V53.1324C101.428 53.0884 101.4 53.0495 101.357 53.0403V52.8297C101.421 52.8297 101.499 52.8287 101.499 52.7377V51.9954C101.499 51.9688 101.489 51.9453 101.472 51.9279C101.462 51.5629 101.365 51.2203 101.201 50.9197L101.421 50.7837C101.462 50.7561 101.476 50.7009 101.451 50.658C101.27 50.3512 101.012 50.0772 100.723 49.8768C100.683 49.8482 100.627 49.8594 100.599 49.9003L100.455 50.1161C100.296 50.0138 100.122 49.9341 99.9369 49.8758C100.005 49.613 100.071 49.3502 100.14 49.0875C100.153 49.0384 100.123 48.9893 100.075 48.976C99.8589 48.9198 99.6349 48.886 99.4109 48.8778V48.6488H103.211L102.929 52.6835L102.789 52.6743C102.789 52.6743 102.699 52.7172 102.694 52.754L102.46 54.5291ZM105.527 54.98C104.55 54.98 103.578 54.8654 102.604 54.8031L102.714 53.9687C103.651 54.0577 104.586 54.1927 105.527 54.1927C106.47 54.1927 107.405 54.0577 108.341 53.9687L108.452 54.8031C107.477 54.8654 106.506 54.98 105.527 54.98Z" fill="#1D1D1B"/>
<path fill-rule="evenodd" clip-rule="evenodd" d="M93.192 46.4485L93.32 48.0875H94.09L94.218 46.4485C94.218 45.6601 93.192 45.6642 93.192 46.4485ZM94.411 46.4485L94.283 48.1826C94.283 48.2378 94.241 48.2838 94.187 48.2838C93.911 48.2838 93.498 48.2756 93.224 48.2858C93.171 48.2858 93.128 48.2419 93.128 48.1877L93 46.4485C93 45.4066 94.411 45.4045 94.411 46.4485Z" fill="#1D1D1B"/>
<path fill-rule="evenodd" clip-rule="evenodd" d="M105 46.4485L105.127 48.1877C105.127 48.2419 105.17 48.2858 105.224 48.2858C105.499 48.2756 105.911 48.2838 106.187 48.2838C106.241 48.2838 106.283 48.2378 106.283 48.1826L106.411 46.4485C106.411 45.4045 105 45.4066 105 46.4485ZM106.091 48.0875H105.32L105.192 46.4485C105.192 45.6642 106.218 45.6601 106.218 46.4485L106.091 48.0875Z" fill="#1D1D1B"/>
</g>
</svg>
