<svg width="34" height="32" viewBox="0 0 34 32" fill="none" xmlns="http://www.w3.org/2000/svg">
<path fill-rule="evenodd" clip-rule="evenodd" d="M28.6875 2.13342H24.4375V1.06671C24.4375 0.426758 24.0126 0 23.375 0C22.7374 0 22.3124 0.426636 22.3124 1.06671V2.13342H11.6876V1.06671C11.6876 0.426758 11.2626 0 10.625 0C9.98755 0 9.56246 0.426636 9.56246 1.06671V2.13342H5.3125C2.33746 2.13342 0 4.48004 0 7.46674V26.6667C0 29.6534 2.33746 32 5.3125 32H28.6875C31.6625 32 34 29.6534 34 26.6667V7.46674C34 4.48004 31.6625 2.13342 28.6875 2.13342ZM2.12544 7.46674C2.12544 5.76007 3.61296 4.26672 5.31296 4.26672H9.56292V5.33344C9.56292 5.97339 9.98789 6.40015 10.6255 6.40015C11.2629 6.40015 11.688 5.97351 11.688 5.33344V4.26672H22.313V5.33344C22.313 5.97339 22.738 6.40015 23.3756 6.40015C24.0132 6.40015 24.4381 5.97351 24.4381 5.33344V4.26672H28.6881C30.3881 4.26672 31.8756 5.76007 31.8756 7.46674V10.6667H2.12544V7.46674ZM28.688 29.8667C30.388 29.8667 31.8755 28.3734 31.8755 26.6667V12.8H2.12544V26.6667C2.12544 28.3734 3.61296 29.8667 5.31296 29.8667H28.688Z" fill="#F85C5D"/>
<path fill-rule="evenodd" clip-rule="evenodd" d="M7.60501 26.5148C8.27602 26.5148 8.72349 26.2862 9.17083 25.8291C9.61818 25.372 9.84185 24.6862 9.84185 24.2291C9.84185 23.772 9.61818 23.0862 9.17083 22.629C8.27615 21.7148 6.93399 21.7148 6.03918 22.629C5.59184 23.0862 5.36816 23.5433 5.36816 24.2291C5.36816 24.6862 5.59184 25.372 6.03918 25.8291C6.48652 26.2862 6.93399 26.5148 7.60501 26.5148Z" fill="#F85C5D"/>
<path fill-rule="evenodd" clip-rule="evenodd" d="M7.60501 20.1144C8.27602 20.1144 8.72349 19.8858 9.17083 19.4287C9.61818 18.9716 9.84185 18.2858 9.84185 17.8287C9.84185 17.3716 9.61818 16.6858 9.17083 16.2286C8.27615 15.3144 6.93399 15.3144 6.03918 16.2286C5.59184 16.6858 5.36816 17.1429 5.36816 17.8287C5.36816 18.5145 5.59184 18.9716 6.03918 19.4287C6.48652 19.8858 6.93399 20.1144 7.60501 20.1144Z" fill="#F85C5D"/>
<path fill-rule="evenodd" clip-rule="evenodd" d="M13.8687 26.5148C14.5397 26.5148 14.9872 26.2862 15.4345 25.8291C15.8818 25.372 16.1055 24.6862 16.1055 24.2291C16.1055 23.772 15.8818 23.0862 15.4345 22.629C14.5398 21.7148 13.1977 21.7148 12.3029 22.629C11.8555 23.0862 11.6318 23.772 11.6318 24.2291C11.6318 24.6862 11.8555 25.372 12.3029 25.8291C12.7502 26.2862 13.1977 26.5148 13.8687 26.5148Z" fill="#F85C5D"/>
<path fill-rule="evenodd" clip-rule="evenodd" d="M13.8687 20.1144C14.5397 20.1144 14.9872 19.8858 15.4345 19.4287C15.8818 18.9716 16.1055 18.2858 16.1055 17.8287C16.1055 17.3716 15.8818 16.6858 15.4345 16.2286C14.5398 15.3144 13.1977 15.3144 12.3029 16.2286C11.8555 16.6858 11.6318 17.3716 11.6318 17.8287C11.6318 18.2858 11.8555 18.9716 12.3029 19.4287C12.7502 19.8858 13.1977 20.1144 13.8687 20.1144Z" fill="#F85C5D"/>
<path fill-rule="evenodd" clip-rule="evenodd" d="M20.1323 26.5148C20.8034 26.5148 21.2508 26.2862 21.6982 25.8291C22.1455 25.372 22.3692 24.9149 22.3692 24.2291C22.3692 23.5433 22.1455 23.0862 21.6982 22.629C20.8035 21.7148 19.4613 21.7148 18.5665 22.629C18.1192 23.0862 17.8955 23.772 17.8955 24.2291C17.8955 24.6862 18.1192 25.372 18.5665 25.8291C19.0139 26.2862 19.4613 26.5148 20.1323 26.5148Z" fill="#F85C5D"/>
<path fill-rule="evenodd" clip-rule="evenodd" d="M20.1323 20.1144C20.8034 20.1144 21.2508 19.8858 21.6982 19.4287C22.1455 18.9716 22.3692 18.5145 22.3692 17.8287C22.3692 17.3716 22.1455 16.6858 21.6982 16.2286C20.8035 15.3144 19.4613 15.3144 18.5665 16.2286C18.1192 16.6858 17.8955 17.3716 17.8955 17.8287C17.8955 18.2858 18.1192 18.9716 18.5665 19.4287C19.0139 19.8858 19.4613 20.1144 20.1323 20.1144Z" fill="#F85C5D"/>
<path fill-rule="evenodd" clip-rule="evenodd" d="M26.395 26.5148C27.0661 26.5148 27.5135 26.2862 27.9609 25.8291C28.4082 25.372 28.6319 24.6862 28.6319 24.2291C28.6319 23.772 28.4082 23.0862 27.9609 22.629C27.0662 21.7148 25.724 21.7148 24.8292 22.629C24.3819 23.0862 24.1582 23.5433 24.1582 24.2291C24.1582 24.6862 24.3819 25.372 24.8292 25.8291C25.2766 26.2862 25.724 26.5148 26.395 26.5148Z" fill="#F85C5D"/>
<path fill-rule="evenodd" clip-rule="evenodd" d="M26.395 20.1144C27.0661 20.1144 27.5135 19.8858 27.9609 19.4287C28.4082 18.9716 28.6319 18.5145 28.6319 17.8287C28.6319 17.3716 28.4082 16.6858 27.9609 16.2286C27.0662 15.3144 25.724 15.3144 24.8292 16.2286C24.3819 16.6858 24.1582 17.3716 24.1582 17.8287C24.1582 18.2858 24.3819 18.9716 24.8292 19.4287C25.2766 19.8858 25.724 20.1144 26.395 20.1144Z" fill="#F85C5D"/>
</svg>
