<svg width="50" height="13" viewBox="0 0 50 13" fill="none" xmlns="http://www.w3.org/2000/svg">
<g id="mastak- copy 2">
<g id="Layer_6">
<g id="Group">
<path id="Shape" fill-rule="evenodd" clip-rule="evenodd" d="M49.021 10.3487C48.956 11.3223 48.7163 11.8047 48.2979 11.8047C48.1394 11.8047 48.0135 11.7222 47.916 11.5613C47.8185 11.3962 47.721 11.0963 47.6154 10.6617L46.6688 6.40655L49.1591 4.22033L49.2566 3.71615H46.1854L45.9498 4.90705H46.8801L44.2233 7.18455L45.641 0H42.2896L42.0539 1.19091H43.5977L41.8346 10.0879C41.7818 10.1053 41.7249 10.114 41.6558 10.114C41.5827 10.114 41.5136 10.0662 41.4487 9.97058C41.3837 9.87496 41.3512 9.71849 41.3512 9.50117C41.3512 9.33166 41.3715 9.15346 41.408 8.96657L42.4764 3.71615H40.6402L40.4452 4.69843C40.2299 4.34203 39.9496 4.06386 39.5962 3.86392C39.2428 3.66399 38.8406 3.56837 38.3856 3.56837C37.6056 3.56837 36.8988 3.79873 36.265 4.25075C35.9319 4.4898 35.6354 4.77666 35.3754 5.09829H32.3936L33.0192 1.97325H31.1139L30.5289 5.09829H29.5458C29.5052 4.50284 29.3711 3.80308 29.0015 3.2989C28.518 2.64259 27.6446 2.28619 26.5112 2.28619C25.6865 2.28619 24.9431 2.45135 24.281 2.78602C23.6188 3.11635 23.0988 3.56837 22.7251 4.13775C22.3513 4.70712 22.1604 5.333 22.1604 6.01973C22.1604 6.48479 22.2823 6.86292 22.5301 7.14978C22.7738 7.43664 23.0704 7.64962 23.4197 7.7887C23.7691 7.92778 24.2281 8.07121 24.8009 8.21899C25.3006 8.33634 25.6987 8.45369 25.9953 8.5667C26.2918 8.67971 26.5396 8.84052 26.7387 9.04915C26.9378 9.25777 27.0393 9.53159 27.0393 9.86627C27.0393 10.3444 26.8728 10.7833 26.5478 11.1919C26.2187 11.6005 25.6094 11.8004 24.7197 11.8004C23.2004 11.8004 22.4407 11.0963 22.4407 9.68806C22.4407 9.4099 22.4773 9.07523 22.5504 8.67536H21.4373C21.3723 9.10565 21.3438 9.47944 21.3398 9.80542C21.2585 10.001 21.1082 10.101 20.8807 10.101C20.8076 10.101 20.7385 10.0532 20.6735 9.95754C20.6085 9.86192 20.576 9.70545 20.576 9.48813C20.576 9.31862 20.5964 9.14042 20.6329 8.95353L21.7135 3.7118H19.8773L19.6823 4.69408C19.467 4.33768 19.1867 4.05951 18.8333 3.85958C18.4799 3.65965 18.0777 3.56403 17.6227 3.56403C16.8427 3.56403 16.1358 3.79438 15.5021 4.24641C14.8684 4.70277 14.3687 5.31127 14.0071 6.06754C13.6456 6.82815 13.4669 7.63223 13.4669 8.48412C13.4669 8.64493 13.479 8.79706 13.4912 8.94483H12.0328C12.0125 9.28385 11.9638 9.56202 11.8866 9.77934C11.8094 9.99666 11.6469 10.1053 11.4072 10.1053C11.3341 10.1053 11.265 10.0575 11.2 9.96189C11.135 9.86627 11.1025 9.7098 11.1025 9.49248C11.1025 9.32297 11.1228 9.14477 11.1594 8.95787L11.4641 7.42795C11.6022 6.72384 11.6713 6.12404 11.6713 5.62855C11.6713 4.92444 11.5331 4.40287 11.2528 4.0682C10.9766 3.72919 10.55 3.56403 9.97319 3.56403C9.46539 3.56403 8.98196 3.72484 8.52697 4.04213C8.07199 4.35941 7.682 4.80709 7.36107 5.38081C7.3245 4.76797 7.17013 4.3116 6.89389 4.0117C6.62171 3.71615 6.21547 3.56403 5.67923 3.56403C5.24456 3.56403 4.82613 3.68138 4.42801 3.92043C4.0299 4.15948 3.66835 4.49415 3.34335 4.93313L3.57897 3.7118H0.235619L0 4.90271H1.54371L0 13H1.80777L2.82337 7.58007C2.93305 7.02374 3.09555 6.5326 3.30273 6.09796C3.50991 5.66767 3.74553 5.333 4.00552 5.10264C4.26552 4.86794 4.52551 4.75493 4.78551 4.75493C5.28518 4.75493 5.53705 5.15045 5.53705 5.94584C5.53705 6.29355 5.47611 6.78903 5.3583 7.4323L4.61488 11.1484H6.42265L7.13357 7.58007C7.24326 7.02374 7.40575 6.5326 7.61293 6.09796C7.82012 5.66767 8.05574 5.333 8.31573 5.10264C8.57572 4.86794 8.83572 4.75493 9.09571 4.75493C9.59539 4.75493 9.84725 5.15045 9.84725 5.94584C9.84725 6.29355 9.78632 6.78903 9.66851 7.4323L9.41664 8.66667C9.33133 9.08392 9.2907 9.44032 9.2907 9.73587C9.2907 10.3226 9.43289 10.7268 9.72132 10.9572C10.0097 11.1832 10.4201 11.3006 10.9604 11.3006C11.5088 11.3006 11.9272 11.2093 12.2197 11.0267C12.5122 10.8442 12.7112 10.5878 12.825 10.2531C12.8318 10.2335 12.8374 10.2126 12.8431 10.1911L12.8432 10.191C12.8476 10.1743 12.8522 10.1572 12.8575 10.1401H13.8731C13.9625 10.2879 14.064 10.4269 14.1818 10.5486C14.649 11.0485 15.2868 11.3006 16.0952 11.3006C16.5949 11.3006 17.0783 11.1832 17.5414 10.9442C18.0046 10.7051 18.423 10.3791 18.7927 9.96189C18.8292 10.4661 18.9876 10.8181 19.2639 11.0094C19.5401 11.2006 19.9342 11.3006 20.4461 11.3006C20.8929 11.3006 21.2545 11.2397 21.5307 11.118C21.6363 11.4614 21.7785 11.7265 21.9248 11.9743C22.3026 12.6132 23.375 13 24.6344 13C25.5159 13 26.2959 12.8348 26.9825 12.5002C27.669 12.1698 28.2052 11.6961 28.5871 11.0876C28.973 10.4791 29.164 9.77499 29.164 8.98395C29.164 8.44935 29.0299 8.0234 28.7618 7.71046C28.4937 7.39753 28.1687 7.17151 27.7868 7.02808C27.4049 6.88465 26.9175 6.74992 26.3122 6.61952C25.8409 6.51087 25.4712 6.4109 25.2072 6.31528C24.9431 6.21966 24.7197 6.08927 24.5409 5.91976C24.3622 5.75025 24.2688 5.52859 24.2688 5.25042C24.2688 5.01137 24.3338 4.75928 24.4638 4.48546C24.5938 4.21163 24.8213 3.97693 25.1462 3.777C25.4712 3.57706 25.9059 3.48144 26.4543 3.48144C27.1287 3.48144 27.6446 3.6553 27.9899 4.00301C28.3393 4.35072 28.5099 4.83751 28.5099 5.45904C28.5099 5.72852 28.4815 5.99365 28.4246 6.2892H30.3136L29.5093 10.3487C29.4443 10.6573 29.4118 10.9398 29.4118 11.1963C29.4118 11.7396 29.5539 12.1264 29.8424 12.348C30.1308 12.5697 30.533 12.6827 31.053 12.6827C31.638 12.6827 32.0848 12.5827 32.3936 12.3872C32.7023 12.1872 32.9176 11.9134 33.0395 11.5613C33.1614 11.2093 33.2304 10.7486 33.2467 10.1836H32.2717C32.227 11.0572 32.0117 11.4918 31.6339 11.4918C31.5405 11.4918 31.4633 11.444 31.3983 11.3484C31.3333 11.2528 31.3008 11.105 31.3008 10.8964C31.3008 10.779 31.3252 10.5921 31.3698 10.3444L32.1742 6.28485H34.6888C34.3923 6.98027 34.242 7.71481 34.242 8.48412C34.242 9.35774 34.4776 10.0445 34.9448 10.5443C35.4119 11.0441 36.0497 11.2962 36.8581 11.2962C37.3578 11.2962 37.8412 11.1789 38.3044 10.9398C38.7675 10.7008 39.1859 10.3748 39.5556 9.95754C39.5921 10.4617 39.7506 10.8138 40.0268 11.005C40.3031 11.1963 40.6971 11.2962 41.209 11.2962C41.6111 11.2962 41.9402 11.2441 42.2043 11.1484H43.4392L43.8983 8.84487L45.1495 7.74524L45.8157 10.6617C45.962 11.344 46.092 11.8308 46.2057 12.1177C46.3154 12.4045 46.4901 12.6219 46.7257 12.774C46.9613 12.9218 47.3229 12.9957 47.8022 12.9957C48.5416 12.9957 49.0819 12.7783 49.4231 12.3394C49.7603 11.9047 49.9553 11.2397 50 10.3444H49.021V10.3487ZM19.1704 7.28143L19.1014 7.63771C18.9348 8.3329 18.6423 8.91512 18.2198 9.39306C17.7973 9.871 17.3099 10.1056 16.7533 10.1056C16.3349 10.1056 16.0099 9.95355 15.7784 9.64506C15.5468 9.33657 15.429 8.91077 15.429 8.36766C15.429 7.80282 15.5306 7.24233 15.7337 6.68183C15.9368 6.12134 16.2212 5.66078 16.5827 5.30015C16.9443 4.93953 17.3546 4.75704 17.8217 4.75704C18.2686 4.75704 18.6098 4.9178 18.8576 5.23932C19.1014 5.56085 19.2273 6.00403 19.2273 6.56887C19.2232 6.83825 19.207 7.07288 19.1704 7.28143ZM39.8684 7.63771L39.9374 7.28143C39.974 7.07288 39.9943 6.83825 39.9943 6.56887C39.9943 6.00403 39.8684 5.56085 39.6246 5.23932C39.3768 4.9178 39.0356 4.75704 38.5888 4.75704C38.1216 4.75704 37.7113 4.93953 37.3497 5.30015C36.9882 5.66078 36.7038 6.12134 36.5007 6.68183C36.2976 7.24233 36.196 7.80282 36.196 8.36766C36.196 8.91077 36.3139 9.33657 36.5454 9.64506C36.777 9.95355 37.1019 10.1056 37.5204 10.1056C38.0769 10.1056 38.5644 9.871 38.9869 9.39306C39.4093 8.91512 39.7018 8.3329 39.8684 7.63771Z" fill="black"/>
<path id="Shape_2" d="M37.4391 2.85334C37.4269 2.86203 37.3457 2.71434 37.3457 2.71C37.886 2.75343 39.7181 0.568539 39.7181 0.568539C39.8725 0.425196 40.0228 0.342665 40.165 0.312259C40.3071 0.281853 40.4371 0.307915 40.5427 0.381759C40.6524 0.455602 40.7296 0.58157 40.7824 0.750975C40.8555 1.042 40.7621 1.48941 40.5793 1.69791C39.9578 2.40593 38.995 2.77515 37.4391 2.85334Z" fill="#E30613"/>
</g>
</g>
</g>
</svg>
