<svg width="154" height="175" viewBox="0 0 154 175" fill="none" xmlns="http://www.w3.org/2000/svg">
<path d="M69.4295 115.704C68.8284 110.962 68.2272 106.22 67.6261 101.477C66.1568 89.4532 64.6806 77.3751 63.2112 65.3509C62.8287 62.333 64.3635 59.7292 67.0072 58.518C69.3407 57.4557 72.574 57.8671 74.2576 59.8987C75.2921 61.1365 75.9562 62.914 76.1611 64.5307C77.1633 71.1385 78.0103 77.8209 78.8505 84.4493C78.9735 85.4193 79.0965 86.3893 79.3424 88.3293C81.2059 84.4245 83.8489 82.7753 87.3727 83.3143C91.1123 83.8258 91.9745 87.1661 93.1401 90.3037C93.6991 89.521 94.0961 88.7589 94.6284 88.1986C96.6162 86.1397 99.1731 85.5418 101.867 86.0217C104.56 86.5016 105.556 88.7299 106.079 91.1276C106.432 92.6159 106.671 94.0641 107.099 96.1453C108.802 93.1369 111.014 91.9804 113.801 91.9009C117.627 91.7992 120.188 93.829 120.289 97.6492C120.629 108.557 120.923 119.526 120.993 130.468C120.993 134.794 119.413 138.772 116.908 142.375C115.043 144.966 112.73 146.628 109.316 146.951C101.839 147.68 94.3359 148.631 86.907 149.737C80.8209 150.618 76.141 148.747 72.4958 143.788C65.8005 134.672 59.0041 125.622 52.3628 116.499C51.3686 115.146 50.5631 113.551 50.0814 111.915C49.0238 108.763 49.7358 106.592 51.9136 105.167C54.5901 103.349 57.5529 103.357 59.9184 105.576C62.223 107.747 64.1369 110.297 66.1921 112.665C67.0982 113.755 67.957 114.905 68.863 115.995C69.0113 115.867 69.2204 115.786 69.4295 115.704Z" fill="#FFB7B8"/>
<path d="M119.849 82.8418L113.737 86.9435C113.737 86.9435 90.3072 43.3668 79.5376 21.6983C79.1024 20.8227 78.6672 19.9471 78.1353 18.8769C63.3226 26.2391 48.7047 33.5044 33.7945 40.915C43.562 60.5672 53.3052 80.1707 63.121 99.9201C60.2503 100.012 57.6715 100.081 54.5575 100.173C54.3399 99.735 53.9289 98.908 53.4937 98.0324C44.1131 79.1586 34.7812 60.2605 25.4494 41.3624C23.346 37.1304 24.82 32.3942 28.9376 30.2871C43.0927 23.1911 57.3449 16.1681 71.5001 9.07215C74.6185 7.52222 77.5629 7.21135 80.4515 9.23331C81.3011 9.84229 82.1744 10.6214 82.6338 11.5457C93.7995 33.7156 119.849 82.8418 119.849 82.8418ZM47.4602 26.8437C49.9649 27.1153 57.3959 23.3614 58.5456 21.2735C55.9936 20.54 48.4652 24.3424 47.4602 26.8437Z" fill="#FFB7B8"/>
</svg>
