<svg width="92" height="81" viewBox="0 0 92 81" fill="none" xmlns="http://www.w3.org/2000/svg">
<path fill-rule="evenodd" clip-rule="evenodd" d="M85.2549 26.4088C87.3354 27.8646 89.1038 29.8403 89.9359 32.128C92.1204 37.9513 91.8083 45.6463 88.3756 50.6376C86.8153 52.6134 84.8389 53.9652 82.7584 54.9011L82.5504 55.0051C81.9936 55.3231 81.2543 55.5196 80.7976 55.6409C80.6571 55.6783 80.5434 55.7085 80.4699 55.733C73.7085 57.7087 66.1149 56.6689 60.9138 51.9895C56.4408 47.622 56.1288 40.551 57.377 34.6237C58.1052 31.0882 60.2897 27.5526 63.7224 25.7849C69.9637 22.2493 79.2217 22.5613 85.2549 26.4088ZM76.8307 48.142C78.0789 47.726 78.8071 46.5822 79.0151 45.4383C79.2925 43.6359 79.2925 41.6486 79.2925 39.7229C79.2925 38.7601 79.2925 37.8126 79.3272 36.9114C79.2698 36.5674 79.2362 36.2077 79.2023 35.8451C79.1133 34.8926 79.0225 33.9211 78.495 33.1679C77.4548 31.7121 75.5824 31.4001 73.814 31.4001C72.0457 31.5041 70.1733 32.0241 69.4451 33.7918C68.6399 36.2962 68.7581 39.1852 68.8731 41.9957C68.8918 42.4527 68.9104 42.9077 68.925 43.3586C69.029 45.0224 69.2371 46.6862 70.6934 47.726C72.4617 48.7659 74.9583 48.9739 76.8307 48.142Z" fill="#A9B7F4"/>
<path fill-rule="evenodd" clip-rule="evenodd" d="M67.7701 67.1347C70.4913 65.0774 73.0031 62.3001 74.9916 59.5228C75.4102 59.5228 76.0382 59.5228 76.2475 59.3171C68.2934 71.455 54.583 77.5239 40.1401 75.6724C35.9537 75.158 31.9766 73.8208 28.3136 72.0721C28.4182 72.0721 28.3136 71.9693 28.3136 71.9693C22.8713 69.2948 17.5337 64.666 14.1846 59.4199C14.3631 59.4199 14.5294 59.408 14.6918 59.3963C15.0056 59.3737 15.305 59.3522 15.6498 59.4199C17.6383 62.3001 20.2548 65.0774 23.0806 67.2376C24.0639 66.7915 24.9926 66.238 25.906 65.6935C26.2565 65.4846 26.6048 65.2771 26.953 65.0774C26.7659 64.841 26.5788 64.6062 26.3923 64.3723L26.3922 64.3722C25.1186 62.7742 23.8755 61.2145 22.8713 59.4199C23.0343 59.452 23.238 59.4241 23.4476 59.3955C23.9105 59.3321 24.4017 59.2649 24.5458 59.8314C25.5924 61.3743 26.8483 62.9173 28.2089 64.3574L28.4182 64.4602C30.4068 63.6373 32.4999 62.9173 34.5931 62.3001L34.6978 62.1973L33.5465 59.5228C33.8293 59.4533 34.1598 59.4777 34.4736 59.5008C34.6243 59.512 34.7712 59.5228 34.9071 59.5228L36.163 61.9915C38.8842 61.3743 41.71 61.0658 44.6404 60.9629C44.7598 60.6697 44.743 60.4098 44.726 60.1454C44.7131 59.9459 44.7001 59.7439 44.7451 59.5228H46.001C46.0533 59.6771 46.0533 59.9085 46.0533 60.1528V60.1529C46.0533 60.3972 46.0533 60.6543 46.1056 60.86C48.9314 61.0658 52.0712 61.3743 54.7924 61.9915L56.0483 59.5228H57.3042C57.1865 60.0435 56.9363 60.5316 56.6841 61.0238L56.6841 61.0239L56.684 61.0239C56.4878 61.4068 56.2903 61.7922 56.1529 62.1973L56.3623 62.403C58.4554 63.0202 60.3393 63.7402 62.4325 64.5631C64.0024 63.0202 65.2583 61.2715 66.4095 59.5228H67.8748C66.7235 61.4772 65.2583 63.3288 63.7931 65.0774C64.3687 65.4375 64.9705 65.7718 65.5723 66.1061C66.1741 66.4404 66.7759 66.7747 67.3515 67.1347C67.3515 67.2376 67.6655 67.2376 67.7701 67.1347ZM55.5249 63.6373L55.4202 63.7402C54.0597 66.2089 52.5945 68.4719 50.9199 70.7349L50.8152 71.0435L52.8038 71.8664C53.6206 71.465 54.5011 70.9383 55.3459 70.433L55.346 70.433C55.5836 70.2908 55.8184 70.1504 56.0482 70.0149C57.8274 68.7805 59.8159 67.3404 61.2812 65.5917C59.502 64.7688 57.5134 64.0488 55.5249 63.6373ZM46.2115 62.3001C48.9326 62.3001 51.5491 62.6087 54.0609 63.2259V63.3287C52.7004 65.7975 51.1305 68.2662 49.3513 70.5292C48.7826 70.599 48.2622 70.4791 47.7573 70.3627C47.5188 70.3078 47.2838 70.2536 47.0488 70.2206L46.2115 70.1177L46.2004 69.8346C46.0998 67.2751 46.0096 64.979 46.2115 62.3001ZM44.7467 62.3001C42.1303 62.3001 39.5138 62.7116 37.1066 63.123L36.7926 63.3287C38.1532 65.7975 39.8278 68.2662 41.7116 70.5292C42.1826 70.4263 42.7059 70.3749 43.2292 70.3235C43.7525 70.272 44.2758 70.2206 44.7467 70.1177V62.3001ZM29.571 65.6946C31.3502 64.7688 33.3387 64.1516 35.3272 63.6373H35.5366C36.8971 66.2089 38.5717 68.5748 40.2462 70.9406C39.8631 71.1917 39.402 71.3661 38.9581 71.5341C38.6745 71.6414 38.3979 71.7461 38.153 71.8664C35.0133 70.3235 32.0828 68.2662 29.571 65.6946ZM24.6515 68.369C28.0006 70.7349 31.6637 72.4836 35.6408 73.5122C35.9547 73.4093 36.2687 73.1008 36.5827 72.7922C33.5476 70.9406 30.8264 68.9862 28.1053 66.3118C26.954 66.8261 25.8028 67.5461 24.6515 68.2662V68.369ZM53.0155 74.1294C47.9918 75.158 42.5495 75.2609 37.5259 74.0265C37.4359 73.8496 37.6555 73.7488 37.8519 73.6586C37.8838 73.6439 37.9152 73.6295 37.9445 73.6151C42.3402 70.8378 49.1431 70.8378 53.4341 73.8208C53.5031 74.0243 53.3446 74.0489 53.1986 74.0715C53.1232 74.0832 53.0511 74.0944 53.0155 74.1294ZM55.3176 73.6151L57.5154 72.8951C60.6552 71.6607 63.6903 70.3235 66.3068 68.3691C65.1555 67.649 63.8996 66.929 62.6437 66.4147C60.1319 68.8834 57.4108 71.0435 54.3756 72.7922L54.271 72.8951C54.585 73.2037 54.8989 73.4094 55.3176 73.6151Z" fill="#A9B7F4"/>
<path fill-rule="evenodd" clip-rule="evenodd" d="M43.7215 48.7276C39.1712 49.975 34.1876 49.0395 30.9374 45.6093C30.504 45.1935 30.2873 44.5698 29.9623 44.1541H23.3536C23.2452 47.8961 23.2452 52.2617 23.3536 56.0038H30.6123L30.7207 53.717C31.5874 54.1328 32.3458 54.5485 33.2125 54.9643C38.3045 57.0432 44.8049 57.459 49.7885 54.9643C53.4721 52.9894 55.4222 49.2474 54.8805 45.1935C54.3388 41.2436 50.4386 37.6055 46.5383 36.67L34.7293 33.3438L33.8625 32.928C33.4292 32.6162 33.2125 32.2004 33.3208 31.6807C34.2959 30.1215 36.3544 30.6413 37.9795 30.6413C41.338 31.057 44.9132 32.2004 46.8634 35.2148C49.0302 35.2148 51.522 35.2148 53.7971 35.2148C53.9055 31.3689 53.7971 28.0426 53.6888 24.1967C51.522 24.1967 48.8135 24.1967 46.6467 24.1967C46.5383 24.7164 46.755 25.548 46.5383 26.0677L44.2632 24.9243C38.9545 22.7415 31.4791 22.5336 26.6038 25.8598C23.4619 28.1466 22.4868 32.0965 23.3536 35.6306C24.0036 38.9568 27.2538 41.4515 30.3957 42.5949C34.7293 44.0501 39.2796 45.1935 43.6132 46.6487C44.0465 46.8566 44.5882 47.2724 44.5882 47.7921C44.5882 48.3118 44.1549 48.6237 43.7215 48.7276Z" fill="#A9B7F4"/>
<path fill-rule="evenodd" clip-rule="evenodd" d="M19.6269 15.9977C18.2663 17.4314 17.0104 18.9676 15.8591 20.5037C15.5172 20.5706 15.1754 20.5501 14.8043 20.5278C14.6074 20.516 14.4023 20.5037 14.1846 20.5037C20.6734 10.7748 31.0347 5.03993 42.3379 4.11825H44.1171C45.4777 3.91343 47.0476 4.01584 48.3035 4.11825L48.4082 4.22066V4.11825C59.6067 5.03993 69.968 11.0821 76.2475 20.4013C75.9717 20.5363 75.6504 20.4934 75.3136 20.4484C75.1393 20.4251 74.9608 20.4013 74.7823 20.4013C72.7938 17.5338 70.1773 14.8712 67.3515 12.7206L66.9328 12.9254L63.6884 14.7688V14.9736C64.5257 15.7929 65.1536 16.5098 65.7816 17.4314C66.5142 18.2507 67.2468 19.2748 67.7701 20.2989C67.4562 20.4013 66.9329 20.4013 66.4096 20.4013H66.4095C65.1536 18.6603 63.7931 16.9194 62.3278 15.3833C60.2346 16.3049 58.2461 17.1242 56.0483 17.6363L55.9436 17.7387L57.0949 20.4013C56.7778 20.5564 56.4007 20.5353 56.0545 20.5159C55.9436 20.5097 55.8359 20.5037 55.7343 20.5037L54.4784 18.1483H54.2691C51.6526 18.7628 48.8268 19.07 46.1056 19.1724C46.0533 19.3772 46.0533 19.6076 46.0533 19.838V19.8381C46.0533 20.0685 46.0533 20.2989 46.001 20.5037H44.7451C44.7074 20.3563 44.724 20.1691 44.7411 19.9755C44.7715 19.6312 44.8037 19.2667 44.5358 19.07C41.6053 18.9676 38.7795 18.6603 36.0584 18.0459C35.7095 18.5921 35.4537 19.1383 35.1978 19.6844C35.0699 19.9575 34.942 20.2306 34.8024 20.5037C34.6195 20.5037 34.4621 20.5162 34.3124 20.5281C34.034 20.5503 33.7822 20.5703 33.4419 20.5037L34.5931 17.9435L34.3838 17.7387C32.7685 17.3435 31.2155 16.7654 29.6767 16.1926C29.2215 16.0231 28.7675 15.8541 28.3136 15.6905C26.7437 17.2266 25.4878 18.8652 24.3365 20.6061C23.9179 20.7085 23.2899 20.7085 22.9759 20.6061C24.1272 18.6603 25.5924 16.817 27.0577 15.076C26.5377 14.7523 25.9751 14.4494 25.3987 14.1391L25.3986 14.1391C24.6988 13.7624 23.9786 13.3747 23.2899 12.9254C22.2637 13.5434 21.4161 14.3361 20.5226 15.1718L20.5226 15.1718L20.5226 15.1718C20.2315 15.4441 19.9355 15.7209 19.6269 15.9977ZM35.1179 16.4074H35.3272C36.6878 14.052 38.153 11.6966 39.9322 9.44357L40.0369 9.03393C39.6706 8.88033 39.3305 8.75233 38.9904 8.62432L38.9903 8.6243C38.6502 8.49628 38.31 8.36827 37.9437 8.21466C35.0133 9.85321 32.2921 11.799 29.6756 14.2568L29.571 14.564C31.3502 15.2809 33.2341 15.8953 35.1179 16.4074ZM41.6463 17.6063L41.6462 17.6063L41.6462 17.6063L41.6462 17.6063L41.6461 17.6063L41.6461 17.6063L41.6461 17.6063C41.3915 17.5808 41.1352 17.5551 40.8743 17.5338C40.5082 17.4741 40.1155 17.4231 39.7116 17.3707L39.7116 17.3707L39.7115 17.3707C38.7298 17.2432 37.6824 17.1072 36.7926 16.817C38.1532 14.2568 39.7231 11.9013 41.7116 9.64835L44.7467 10.058C44.7467 11.2111 44.7217 12.4378 44.696 13.6901V13.6902V13.6902V13.6902V13.6903V13.6903C44.6693 14.996 44.6421 16.3295 44.6421 17.6363C43.5641 17.7985 42.6176 17.7037 41.6463 17.6063ZM46.0838 12.641V12.6411C46.0606 14.3706 46.0373 16.1002 46.1071 17.7387C48.7236 17.7387 51.3401 17.329 53.8519 16.817C52.7304 14.323 50.9138 12.0234 49.1758 9.82342L49.0376 9.64835C48.5666 9.69955 48.0695 9.77635 47.5724 9.85315L47.5724 9.85316L47.5723 9.85316C47.0752 9.92997 46.5781 10.0068 46.1071 10.058C46.1071 10.9114 46.0955 11.7762 46.0838 12.641ZM61.0727 14.4616C59.2935 15.2809 57.4097 15.9978 55.3165 16.4074C53.8512 13.9496 52.2814 11.4918 50.5021 9.23875C50.8409 9.0178 51.2405 8.85643 51.6517 8.69037C52.0029 8.54857 52.3625 8.40334 52.7 8.21466C55.7351 9.7508 58.6656 11.9014 61.1774 14.3592L61.0727 14.4616ZM65.9928 11.7989C62.6437 9.44351 58.9806 7.70256 55.0035 6.67847C54.9354 6.72291 54.8623 6.76735 54.7876 6.81285C54.5177 6.977 54.2255 7.15477 54.0616 7.39533C56.9921 9.13629 59.9225 11.2869 62.4343 13.7447H62.6437L65.8881 12.0037L65.9928 11.7989ZM53.2253 6.1665C49.1436 9.23878 42.5501 9.44359 38.259 6.78096C38.1841 6.70767 38.069 6.64749 37.9521 6.58635C37.7422 6.47663 37.5264 6.3638 37.5264 6.1665C42.3408 5.04 48.2017 4.93759 53.2253 6.1665ZM34.2802 6.9857C30.8264 8.1122 27.4773 9.75074 24.5468 11.9013C25.6981 12.7206 26.8493 13.4375 28.1053 13.8471C30.7217 11.2869 33.5475 9.13629 36.478 7.39533C36.2687 7.19052 35.9547 6.98571 35.6407 6.78089L35.6407 6.78088C35.4644 6.60836 35.3211 6.66189 35.1552 6.72386C35.0257 6.77225 34.8823 6.82578 34.6988 6.78088V6.67847C34.5389 6.67847 34.4401 6.798 34.3556 6.90009C34.3296 6.93164 34.3049 6.96152 34.2802 6.9857Z" fill="#A9B7F4"/>
<path fill-rule="evenodd" clip-rule="evenodd" d="M21.2787 47.2793C19.6728 47.1773 17.9598 47.2793 16.3538 47.1773V31.1685L16.4609 31.0666H21.1717C21.1717 28.4154 21.2787 25.6623 21.1717 23.3171H3.07805H0.0802971C0.0802971 25.7643 0.0802971 28.6194 0.0802971 31.0666C1.68624 31.0666 3.29218 31.0666 4.79106 31.1685V46.6675V47.2793L0.0802971 47.3813C-0.0267657 49.9305 -0.0267657 52.3777 0.0802971 54.9268H21.2787V47.2793Z" fill="#A9B7F4"/>
</svg>
