<svg width="26" height="26" viewBox="0 0 26 26" fill="none" xmlns="http://www.w3.org/2000/svg">
<circle cx="13" cy="13" r="12.5" stroke="white"/>
<path d="M5.22095 5.22095C7.3014 3.14444 10.0622 2 13 2C15.9378 2 18.7025 3.14444 20.779 5.22095C22.8556 7.29746 24 10.0622 24 13C24 15.9378 22.8556 18.6986 20.779 20.779C18.7025 22.8556 15.9378 24 13 24C10.0622 24 7.3014 22.8556 5.22095 20.779C3.14444 18.7025 2 15.9378 2 13C2 10.0622 3.14444 7.29746 5.22095 5.22095Z" fill="white"/>
<mask id="mask0" mask-type="alpha" maskUnits="userSpaceOnUse" x="2" y="2" width="22" height="22">
<path d="M5.22095 5.22095C7.3014 3.14444 10.0622 2 13 2C15.9378 2 18.7025 3.14444 20.779 5.22095C22.8556 7.29746 24 10.0622 24 13C24 15.9378 22.8556 18.6986 20.779 20.779C18.7025 22.8556 15.9378 24 13 24C10.0622 24 7.3014 22.8556 5.22095 20.779C3.14444 18.7025 2 15.9378 2 13C2 10.0622 3.14444 7.29746 5.22095 5.22095Z" fill="white"/>
</mask>
<g mask="url(#mask0)">
<path d="M21.4453 23C21.4453 27.6944 17.6397 31.5 12.9453 31.5C8.25089 31.5 4.44531 27.6944 4.44531 23C4.44531 18.3056 8.25089 14.5 12.9453 14.5C17.6397 14.5 21.4453 18.3056 21.4453 23Z" stroke="#6A747D"/>
<path fill-rule="evenodd" clip-rule="evenodd" d="M12.8341 6.00301C14.1482 5.95655 15.2537 6.44827 16.104 7.47429C16.881 8.41514 17.1245 9.50699 16.9428 10.6956C16.7998 11.6249 16.3437 12.3992 15.6402 13.0148C14.8942 13.6692 14.0207 14.0176 12.9423 13.9983C11.976 14.0293 11.0908 13.6382 10.3101 12.98C9.97765 12.6974 9.72254 12.3412 9.50996 11.9656C9.2046 11.4313 9.0268 10.8389 9.00361 10.2271C8.96109 9.13143 9.2935 8.15186 10.0318 7.32717C10.7816 6.49086 11.7286 6.04173 12.8341 6.00301Z" stroke="#6A747D"/>
</g>
</svg>
