<svg width="22" height="22" viewBox="0 0 22 22" fill="none" xmlns="http://www.w3.org/2000/svg">
<path fill-rule="evenodd" clip-rule="evenodd" d="M10.8341 4.00301C12.1482 3.95655 13.2537 4.44827 14.104 5.47429C14.881 6.41514 15.1245 7.50699 14.9428 8.69564C14.7998 9.62487 14.3437 10.3992 13.6402 11.0148C12.8942 11.6692 12.0207 12.0176 10.9423 11.9983C9.97597 12.0293 9.09084 11.6382 8.31006 10.98C7.97765 10.6974 7.72254 10.3412 7.50996 9.96559C7.2046 9.43128 7.0268 8.83889 7.00361 8.22715C6.96109 7.13143 7.2935 6.15186 8.03176 5.32717C8.78162 4.49086 9.7286 4.04173 10.8341 4.00301Z" fill="#A8A8A8"/>
<path fill-rule="evenodd" clip-rule="evenodd" d="M11 0C8.06221 0 5.3014 1.14444 3.22095 3.22095C1.14444 5.29746 0 8.06221 0 11C0 13.9378 1.14444 16.7025 3.22095 18.779C5.3014 20.8556 8.06221 22 11 22C13.9378 22 16.7025 20.8556 18.779 18.779C20.8556 16.6986 22 13.9378 22 11C22 8.06221 20.8556 5.29746 18.779 3.22095C16.7025 1.14444 13.9378 0 11 0ZM4.35753 17.8548L4.25134 17.7487C2.45012 15.9474 1.45513 13.5484 1.45513 11C1.45513 8.45156 2.45012 6.05256 4.25134 4.25134C6.05256 2.44619 8.45156 1.45513 11 1.45513C13.5484 1.45513 15.9396 2.45406 17.7447 4.25527C19.5499 6.05649 20.5409 8.45549 20.5409 11.0039C20.5409 13.4265 19.6482 15.7075 18.0122 17.4773C18.0043 17.4694 18.0004 17.4616 17.9964 17.4537C17.9642 17.4872 17.932 17.5211 17.8997 17.5551C17.8333 17.6251 17.7663 17.6956 17.6975 17.7644C17.0172 15.7862 15.7587 14.335 13.8552 13.4934C11.9478 12.6518 10.0129 12.6675 8.12513 13.5406C6.2492 14.4097 5.00644 15.8727 4.35753 17.8548Z" fill="#A8A8A8"/>
</svg>
