<svg width="50" height="50" viewBox="0 0 50 50" fill="none" xmlns="http://www.w3.org/2000/svg">
<path d="M48.2759 14.8278C48.2759 7.24156 42.069 1.03467 34.4828 1.03467H13.7931C6.2069 1.03467 0 7.24156 0 14.8278V26.8967C0 34.2243 5.68966 40.1726 12.931 40.6036V37.2416C12.931 36.7243 13.2759 36.3795 13.7931 36.3795C14.3103 36.3795 14.6552 36.7243 14.6552 37.2416V40.6898V41.5519V48.9657L15.8621 47.7588C20.431 43.1898 26.5517 40.6898 33.0172 40.6898H34.4828C42.069 40.6898 48.2759 34.4829 48.2759 26.8967V14.8278Z" fill="#69BC45"/>
<path d="M36.4651 27.1553C37.8934 27.1553 39.0513 25.9974 39.0513 24.5691C39.0513 23.1408 37.8934 21.9829 36.4651 21.9829C35.0368 21.9829 33.8789 23.1408 33.8789 24.5691C33.8789 25.9974 35.0368 27.1553 36.4651 27.1553Z" fill="white"/>
<path d="M29.3108 27.1553C30.7391 27.1553 31.897 25.9974 31.897 24.5691C31.897 23.1408 30.7391 21.9829 29.3108 21.9829C27.8825 21.9829 26.7246 23.1408 26.7246 24.5691C26.7246 25.9974 27.8825 27.1553 29.3108 27.1553Z" fill="white"/>
<path d="M22.1555 27.1553C23.5839 27.1553 24.7418 25.9974 24.7418 24.5691C24.7418 23.1408 23.5839 21.9829 22.1555 21.9829C20.7272 21.9829 19.5693 23.1408 19.5693 24.5691C19.5693 25.9974 20.7272 27.1553 22.1555 27.1553Z" fill="white"/>
</svg>
