<svg width="174" height="80" viewBox="0 0 174 80" fill="none" xmlns="http://www.w3.org/2000/svg">
<path fill-rule="evenodd" clip-rule="evenodd" d="M61.2144 38.4494C61.2043 38.4396 49.7349 34.1425 47.3857 33.2712C47.0154 33.1318 46.842 33.404 46.8521 33.5678C47.1346 37.9803 50.8425 41.4546 55.3637 41.4328C57.9731 41.4203 60.2909 40.2502 61.8416 38.4178C61.8416 38.4178 61.5831 38.5996 61.2144 38.4494ZM55.2845 24.6328C53.5162 24.641 51.8788 25.1857 50.5249 26.1082C50.5249 26.1082 62.5007 31.6287 62.5231 31.6374C63.6424 32.1354 63.6594 31.4116 63.6594 31.4116C62.8912 27.5275 59.4259 24.6121 55.2845 24.6328Z" fill="#004F9E"/>
<path fill-rule="evenodd" clip-rule="evenodd" d="M62.1847 37.1705C62.1224 37.1531 46.3866 30.6094 46.2445 30.5484C45.6828 30.3259 45.3205 30.8543 45.6833 31.3408C45.7312 31.4012 46.9712 33.005 46.9712 33.005C46.9712 33.005 46.7031 32.543 46.6845 32.3422C46.6616 32.1359 46.7909 31.9155 47.2 32.0826C47.6069 32.2529 61.6532 37.9079 61.6915 37.927C62.1272 38.0772 62.5214 38.0625 62.7012 37.8089C62.9826 37.4002 63.2098 37.0143 63.4167 36.5555C63.279 36.7884 62.831 37.4176 62.1847 37.1705ZM64.1115 32.1076C64.0929 32.3166 63.9556 33.2429 62.9348 32.7601C62.7565 32.6742 42.2073 23.1863 41.9222 23.0518C41.5312 22.8652 40.6795 23.1803 41.1264 24.0369C41.1365 24.0614 42.7813 26.6834 42.7638 26.6431C42.7372 26.6056 42.493 26.0151 42.3813 25.4769C42.327 25.2614 42.5186 25.0584 42.8186 25.1906C42.8537 25.2015 62.8411 33.9493 62.9864 34.0135C63.4146 34.2159 64.1205 34.1131 64.1594 33.5634C64.1636 33.3925 64.1674 33.2276 64.1668 33.0497C64.1652 32.7362 64.1514 32.4195 64.1115 32.1076ZM62.7422 35.2668C62.6976 35.2505 44.3241 27.0039 44.1257 26.9163C43.6203 26.6856 42.8979 27.1944 43.2969 27.8105C43.3634 27.9084 44.8119 29.9977 44.8119 29.9977C44.8119 29.9977 44.3858 29.3 44.4295 28.9675C44.4507 28.7345 44.6742 28.6317 44.8396 28.7035C44.9987 28.7612 62.289 36.1571 62.3794 36.2029C63.0045 36.4723 63.5216 36.2747 63.7195 35.8143C63.8493 35.4246 63.9541 35.0165 64.0323 34.605C63.9536 34.8097 63.5891 35.5961 62.7422 35.2668Z" fill="#E32313"/>
<path fill-rule="evenodd" clip-rule="evenodd" d="M50.6304 53.6286C50.3383 53.9459 49.8484 54.101 49.3675 54.1032C49.1004 54.1048 48.8956 54.0966 48.7169 54.0618L48.7046 51.4839C48.9009 51.4648 49.1408 51.4458 49.3196 51.4441C49.7473 51.4425 50.1484 51.5312 50.4612 51.7456C50.7559 51.9519 50.9538 52.2664 50.9565 52.7345C50.9576 53.1132 50.8341 53.4115 50.6304 53.6286ZM50.9933 51.2297C50.5741 50.9521 50.0107 50.8286 49.4404 50.8319C49.2452 50.8324 48.8888 50.852 48.7015 50.8803L48.6935 49.2493L51.2869 49.2368L51.2837 48.5782L47.9158 48.5946L47.944 54.6506C48.2036 54.686 48.6132 54.7198 49.1569 54.717C49.9767 54.7127 50.7869 54.5195 51.2736 54.0313C51.5848 53.714 51.77 53.2803 51.7668 52.7127C51.7636 52.0003 51.4492 51.5241 50.9933 51.2297Z" fill="#004F9E"/>
<path fill-rule="evenodd" clip-rule="evenodd" d="M55.2698 53.4513C55.1469 53.8213 54.7921 54.1838 54.2309 54.1865C53.8298 54.1881 53.4893 53.9465 53.4872 53.4322C53.4834 52.5854 54.4538 52.4276 55.3097 52.4423L55.3129 53.1988C55.3134 53.2798 55.2959 53.3696 55.2698 53.4513ZM56.0647 51.9873C56.0609 51.1133 55.7359 50.2044 54.4166 50.211C53.8729 50.2137 53.3569 50.3699 53.001 50.605L53.1819 51.1274C53.484 50.9272 53.9027 50.7993 54.3038 50.7971C55.1864 50.7933 55.2869 51.4409 55.288 51.8017L55.289 51.8921C53.6229 51.8915 52.6983 52.4728 52.7036 53.5269C52.7068 54.1582 53.1553 54.777 54.0288 54.7732C54.6432 54.7699 55.105 54.4613 55.3444 54.1179L55.371 54.1174L55.4359 54.667L56.1492 54.6632C56.0939 54.3666 56.0748 53.9971 56.0726 53.6183L56.0647 51.9873Z" fill="#004F9E"/>
<path fill-rule="evenodd" clip-rule="evenodd" d="M59.7846 50.2147L59.792 51.972L57.7428 51.9824L57.7343 50.2251L56.9592 50.2289L56.98 54.5903L57.7551 54.5865L57.7455 52.6131L59.7952 52.6028L59.8053 54.5761L60.5804 54.5729L60.5597 50.2109L59.7846 50.2147Z" fill="#004F9E"/>
<path fill-rule="evenodd" clip-rule="evenodd" d="M63.9457 52.1935L65.8167 50.2109L64.8634 50.2153L63.2504 52.1157L63.0632 52.1168L63.0541 50.224L62.2791 50.2284L62.3003 54.5897L63.0749 54.5859L63.0658 52.6665L63.2175 52.6659C63.9479 52.6616 64.3506 52.9843 64.6479 53.6863C64.7836 54.0461 64.9373 54.3873 65.0538 54.5761L65.8731 54.5723C65.6752 54.2218 65.522 53.799 65.405 53.5111C65.0624 52.7285 64.641 52.2616 63.9457 52.1935Z" fill="#004F9E"/>
<path fill-rule="evenodd" clip-rule="evenodd" d="M70.4285 54.1223C69.5731 54.1266 68.9283 53.5084 68.9235 52.4989C68.9188 51.5878 69.4502 50.8466 70.4391 50.8422C70.8669 50.8395 71.1616 50.9375 71.3494 51.0447L71.5249 50.4314C71.31 50.3236 70.8998 50.2093 70.437 50.211C69.0283 50.218 68.1245 51.196 68.1309 52.5386C68.1367 53.8719 68.9874 54.7606 70.2891 54.7536C70.8679 54.7514 71.3222 54.6044 71.5265 54.4956L71.3898 53.9008C71.1674 54.0014 70.8738 54.1201 70.4285 54.1223Z" fill="#004F9E"/>
<path fill-rule="evenodd" clip-rule="evenodd" d="M73.7783 54.131C73.5283 54.1327 73.3677 54.124 73.1453 54.0978L73.1378 52.611L73.7076 52.6089C74.4566 52.6045 75.0806 52.7373 75.0838 53.368C75.087 53.9982 74.3034 54.1289 73.7783 54.131ZM73.7432 50.7607C74.5279 50.7569 74.904 50.9626 74.9061 51.3947C74.9083 51.909 74.3119 52.0831 73.7326 52.0853L73.1442 52.0886L73.1378 50.7999C73.3251 50.7814 73.4852 50.7623 73.7432 50.7607ZM74.7849 52.2965V52.279C75.2743 52.1686 75.6829 51.8328 75.6802 51.2918C75.6759 50.3193 74.4806 50.2077 73.7592 50.211C73.2507 50.2132 72.6894 50.2611 72.3867 50.3171L72.4075 54.6246C72.6399 54.6415 73.1389 54.6752 73.6204 54.6731C74.4668 54.6682 75.8914 54.5174 75.8861 53.3724C75.8829 52.7422 75.4185 52.3835 74.7849 52.2965Z" fill="#004F9E"/>
<path fill-rule="evenodd" clip-rule="evenodd" d="M76.866 52.0738C76.9255 51.5242 77.2697 50.7835 78.0629 50.7797C78.9449 50.7748 79.163 51.5585 79.1561 52.063L76.866 52.0738ZM78.1224 50.211C76.8659 50.2175 76.1047 51.2575 76.1105 52.5734C76.1169 53.8893 76.9143 54.7683 78.2421 54.7617C78.9279 54.7585 79.3997 54.6121 79.6758 54.4847L79.5391 53.9176C79.2454 54.045 78.9076 54.1462 78.3464 54.1484C77.5623 54.1522 76.8829 53.7141 76.8595 52.6414L79.8897 52.6268C79.8982 52.5462 79.9157 52.4199 79.9147 52.2572C79.9104 51.4556 79.5301 50.2044 78.1224 50.211Z" fill="#004F9E"/>
<path fill-rule="evenodd" clip-rule="evenodd" d="M84.4274 52.2017L86.1196 50.2109L85.2201 50.2153L83.8034 52.1239L83.6523 52.125L83.6422 50.2229L82.8943 50.2267L82.9033 52.1277L82.7427 52.1293L81.3079 50.2343L80.4078 50.2392L82.1282 52.2131C81.4782 52.2888 81.0967 52.6779 80.8334 53.3821C80.6829 53.7886 80.5424 54.2485 80.3663 54.6012L81.1239 54.5968C81.2739 54.3263 81.3883 53.9835 81.5292 53.6041C81.7931 52.8912 82.157 52.6637 82.7629 52.6605L82.9065 52.6599L82.9145 54.5881L83.6635 54.5854L83.6545 52.6567L83.788 52.6556C84.3492 52.6529 84.7514 52.8667 85.0222 53.578C85.1488 53.9563 85.2754 54.3154 85.4195 54.5767L86.2031 54.5723C86.0233 54.2311 85.8786 53.7718 85.7244 53.3489C85.4632 52.6567 85.0785 52.2708 84.4274 52.2017Z" fill="#004F9E"/>
<path fill-rule="evenodd" clip-rule="evenodd" d="M89.5131 50.2147L88.1773 52.4743C87.8953 52.9805 87.7453 53.2874 87.4889 53.8207L87.4623 53.8115C87.4953 53.1895 87.5022 52.7573 87.499 52.0635L87.49 50.2251L86.75 50.2289L86.7713 54.5908L87.6714 54.5859C88.1305 53.818 88.5991 52.9772 89.0056 52.2997C89.2535 51.8567 89.4386 51.504 89.7126 50.944H89.7386C89.7062 51.6471 89.6902 52.0167 89.6939 52.7285L89.7025 54.5756L90.4515 54.5723L90.4307 50.2109L89.5131 50.2147Z" fill="#004F9E"/>
<path fill-rule="evenodd" clip-rule="evenodd" d="M95.4197 50.2109L94.5733 50.2158L93.9711 51.1465C93.8301 51.3821 93.6886 51.608 93.5471 51.8697H93.5205C93.3774 51.6275 93.2423 51.4022 93.0806 51.1601L92.4608 50.2256L91.5878 50.23L93.0598 52.3584L91.5378 54.5925L92.4018 54.5876L93.0205 53.6031C93.18 53.3402 93.3306 53.1056 93.4716 52.8433H93.4891C93.6423 53.104 93.7865 53.3467 93.9567 53.5976L94.594 54.5772L95.4851 54.5729L93.9599 52.3269L95.4197 50.2109Z" fill="#004F9E"/>
<path fill-rule="evenodd" clip-rule="evenodd" d="M99.9621 54.1506C99.4008 54.1538 98.9274 53.7772 98.7816 53.2281C98.7641 53.1296 98.7444 53.0213 98.7444 52.9032L98.7407 52.156C98.7401 52.0477 98.7667 51.9302 98.7928 51.8311C98.9412 51.2352 99.4391 50.8455 99.9732 50.8428C100.802 50.839 101.26 51.584 101.265 52.4586C101.27 53.4594 100.791 54.1468 99.9621 54.1506ZM100.21 50.211C99.5067 50.2142 99.0008 50.5326 98.6826 51.0659H98.664L98.6252 50.3176L97.9214 50.3214C97.9405 50.7356 97.9602 51.1867 97.9634 51.7451L97.9858 56.4673L98.7614 56.4635L98.7502 54.0934H98.7678C99.0284 54.5244 99.5285 54.7742 100.099 54.7721C101.115 54.7672 102.056 53.9873 102.048 52.4189C102.042 51.0942 101.253 50.2061 100.21 50.211Z" fill="#004F9E"/>
<path fill-rule="evenodd" clip-rule="evenodd" d="M103.465 51.5296C103.524 50.98 103.869 50.2382 104.662 50.2349C105.544 50.2306 105.761 51.0143 105.756 51.5182L103.465 51.5296ZM106.513 51.713C106.509 50.9109 106.129 49.6597 104.721 49.6668C103.465 49.6728 102.703 50.7133 102.709 52.0292C102.716 53.3446 103.514 54.2235 104.841 54.2175C105.527 54.2143 105.999 54.0679 106.275 53.9405L106.139 53.3729C105.844 53.5008 105.506 53.602 104.945 53.6042C104.161 53.608 103.481 53.1694 103.458 52.0973L106.488 52.0826C106.497 52.002 106.514 51.8752 106.513 51.713Z" fill="#004F9E"/>
<path fill-rule="evenodd" clip-rule="evenodd" d="M112.041 50.2142L112.06 53.9546L110.553 53.9617L110.536 50.2224L109.769 50.2256L109.787 53.9661L108.281 53.9726L108.263 50.2333L107.497 50.2371L107.517 54.5984L112.837 54.5729L112.817 50.2109L112.041 50.2142Z" fill="#004F9E"/>
<path fill-rule="evenodd" clip-rule="evenodd" d="M114.635 51.5296C114.695 50.98 115.04 50.2393 115.833 50.2349C116.714 50.2306 116.932 51.0137 116.925 51.5188L114.635 51.5296ZM115.892 49.6668C114.635 49.6733 113.874 50.7133 113.881 52.0292C113.887 53.3446 114.684 54.2241 116.011 54.2175C116.698 54.2143 117.169 54.0679 117.445 53.9405L117.308 53.3729C117.015 53.5008 116.678 53.602 116.116 53.6042C115.332 53.608 114.652 53.1699 114.629 52.0973L117.659 52.0826C117.668 52.002 117.685 51.8758 117.684 51.713C117.68 50.9109 117.3 49.6597 115.892 49.6668Z" fill="#004F9E"/>
<path fill-rule="evenodd" clip-rule="evenodd" d="M121.494 50.2147L121.502 51.972L119.453 51.9824L119.444 50.2251L118.669 50.2289L118.69 54.5903L119.465 54.5865L119.456 52.6131L121.505 52.6028L121.516 54.5761L122.29 54.5729L122.269 50.2109L121.494 50.2147Z" fill="#004F9E"/>
<path fill-rule="evenodd" clip-rule="evenodd" d="M126.218 49.6706L124.883 51.9302C124.601 52.4363 124.451 52.7432 124.195 53.2766L124.168 53.2673C124.201 52.6453 124.208 52.2131 124.204 51.5187L124.195 49.6809L123.456 49.6847L123.477 54.0461L124.377 54.0417C124.837 53.2738 125.305 52.433 125.711 51.7555C125.958 51.3119 126.144 50.9598 126.418 50.3998H126.445C126.413 51.1024 126.396 51.4719 126.399 52.1843L126.408 54.0319L127.157 54.0281L127.136 49.6667L126.218 49.6706Z" fill="#004F9E"/>
<mask id="mask0" mask-type="alpha" maskUnits="userSpaceOnUse" x="128" y="49" width="5" height="6">
<path fill-rule="evenodd" clip-rule="evenodd" d="M128.56 49.8849H132.261V54.2648H128.56V49.8849Z" fill="white"/>
</mask>
<g mask="url(#mask0)">
<path fill-rule="evenodd" clip-rule="evenodd" d="M132.24 49.8849L131.322 49.8887L129.987 52.1483C129.705 52.655 129.555 52.9619 129.299 53.4952L129.272 53.486C129.304 52.8645 129.311 52.4318 129.308 51.7374L129.299 49.899L128.56 49.9028L128.581 54.2648L129.481 54.2599C129.941 53.492 130.408 52.6512 130.815 51.9736C131.062 51.5306 131.248 51.178 131.521 50.6185H131.548C131.517 51.3211 131.5 51.6912 131.503 52.4024L131.512 54.2506L132.261 54.2468L132.24 49.8849Z" fill="#004F9E"/>
</g>
<path fill-rule="evenodd" clip-rule="evenodd" d="M129.92 48.7241C129.563 48.7258 129.375 48.4292 129.346 48.0417L128.776 48.0449C128.814 48.667 129.12 49.1611 129.904 49.1568C130.591 49.153 131.052 48.7726 131.084 48.0341L130.523 48.0362C130.48 48.433 130.303 48.7225 129.92 48.7241Z" fill="#004F9E"/>
<path fill-rule="evenodd" clip-rule="evenodd" d="M121.758 41.4512C121.673 41.2733 121.625 40.7514 121.62 39.8844L121.592 33.812C121.587 32.9391 121.631 32.4134 121.714 32.2376C121.841 31.9742 122.048 31.8158 122.346 31.7674L122.344 31.1633L118.786 31.1802L118.789 31.7843C119.06 31.8447 119.238 31.9867 119.34 32.2104C119.435 32.4384 119.483 32.969 119.488 33.8218L119.5 36.3867L117.291 36.3976L117.279 33.8327C117.274 32.9799 117.323 32.4488 117.423 32.2197C117.522 31.9954 117.698 31.8512 117.961 31.7886L117.958 31.1846L114.413 31.202L114.416 31.8055C114.712 31.8518 114.918 32.008 115.053 32.2697C115.136 32.445 115.176 32.9707 115.18 33.8436L115.209 39.9155C115.213 40.7829 115.178 41.3043 115.096 41.4834C114.963 41.7517 114.76 41.8997 114.464 41.9508L114.467 42.5582L118.013 42.5397L118.01 41.9334C117.745 41.8779 117.569 41.7391 117.467 41.5117C117.366 41.2863 117.312 40.7481 117.308 39.9051L117.295 37.1655L119.504 37.1546L119.517 39.8942C119.52 40.7383 119.477 41.2766 119.385 41.5024C119.285 41.7304 119.109 41.8714 118.838 41.9296L118.84 42.5359L122.397 42.5185L122.395 41.9127C122.095 41.8638 121.888 41.7179 121.758 41.4512Z" fill="#004F9E"/>
<path fill-rule="evenodd" clip-rule="evenodd" d="M69.5215 26.9478C69.8077 26.9462 70.0306 27.0257 70.2072 27.1824C70.3747 27.3429 70.4913 27.5176 70.5455 27.7244C70.604 27.9312 70.6317 28.4553 70.6354 29.2874L70.6838 39.3517C70.6876 40.0896 70.6838 40.4994 70.6758 40.587C70.6211 40.962 70.5471 41.2646 70.4423 41.4774C70.3487 41.688 70.2008 41.8545 70.0013 41.9759C69.813 42.1016 69.6002 42.1636 69.3736 42.1571H69.2709L69.273 42.7775L72.9931 42.759L72.9905 42.1392C72.5176 42.1413 72.1739 42.0194 71.9616 41.7647C71.7387 41.5111 71.5994 41.1764 71.5265 40.7786C71.502 40.5952 71.4903 40.0956 71.4866 39.2869L71.4382 28.7454L75.2322 42.7481L75.7185 42.7454L79.2476 28.9375L79.2997 39.743C79.3034 40.5675 79.2811 41.0806 79.2268 41.2673C79.1593 41.5509 79.0534 41.7419 78.9348 41.8611C78.7443 42.0276 78.5124 42.1125 78.2081 42.1141L77.8788 42.1158L77.882 42.7356L83.1996 42.7095L83.197 42.0896L82.864 42.0913C82.5767 42.0924 82.3511 42.0183 82.1772 41.8594C82.0107 41.7038 81.8942 41.5166 81.8373 41.3103C81.7835 41.0986 81.75 40.5756 81.7463 39.7315L81.6957 29.2336C81.6915 28.415 81.7207 27.9111 81.7724 27.7125C81.8452 27.4529 81.9484 27.2651 82.0729 27.1421C82.2501 26.9712 82.4958 26.8842 82.7922 26.8825L83.1246 26.8809L83.1214 26.2654L78.98 26.2861L76.2653 37.1383L73.3512 26.3133L69.1948 26.334L69.198 26.9495L69.5215 26.9478Z" fill="#004F9E"/>
<path fill-rule="evenodd" clip-rule="evenodd" d="M127.075 41.1535C126.969 40.938 126.917 40.7916 126.911 39.5344L126.901 37.6656L127.358 36.945L128.756 40.0558C128.971 40.5587 129.077 40.8993 129.078 41.0838C129.078 41.2019 129.039 41.3021 128.971 41.3995C128.903 41.4985 128.782 41.5524 128.62 41.5535L128.623 42.1565L132.251 42.1385L132.248 41.5361C131.989 41.5023 131.771 41.3489 131.6 41.0713C131.477 40.8765 131.08 40.1565 130.402 38.5799L128.73 34.6833C128.73 34.6833 130.234 32.2239 130.806 31.7744C131.03 31.5627 131.292 31.4441 131.591 31.419L131.588 30.8057L128.445 30.8209L128.448 31.4348C129.534 31.4294 129.41 32.3453 129.142 32.8052C129.047 32.9668 126.896 36.3714 126.896 36.3714L126.845 25.7211L123.988 25.7352L123.991 26.3502C124.305 26.4166 124.509 26.5581 124.604 26.7643C124.705 26.9728 124.758 27.5039 124.761 28.3605L124.814 39.5448C124.819 40.4101 124.777 40.926 124.693 41.1051C124.571 41.3712 124.361 41.5203 124.064 41.5763L124.066 42.1783L127.695 42.1614L127.691 41.5584C127.38 41.4991 127.173 41.3603 127.075 41.1535Z" fill="#004F9E"/>
<path fill-rule="evenodd" clip-rule="evenodd" d="M91.9256 42.0989L91.5888 42.1C91.2946 42.1016 91.067 42.0281 90.8967 41.8681C90.7334 41.7136 90.6196 41.5253 90.5547 41.319C90.5041 41.1073 90.4664 40.5843 90.4626 39.7402L90.4334 33.7087L90.4031 27.2265L91.1404 27.2232C91.8202 27.2199 92.3261 27.4512 92.6352 27.9285C93.0784 28.5729 93.0156 29.5089 93.139 30.7198L93.7588 30.7165L93.7369 26.2654L84.6221 26.3106L84.6439 30.7612L85.2599 30.7585C85.3695 29.5459 85.3046 28.611 85.7392 27.9623C86.0451 27.4823 86.5468 27.2461 87.2303 27.2423L87.9682 27.239L88.0278 39.7522C88.0315 40.5772 88.0033 41.0894 87.948 41.2766C87.8778 41.5607 87.7746 41.7506 87.6453 41.8681C87.4634 42.0374 87.2288 42.1217 86.9314 42.1228L86.5978 42.1245L86.601 42.7443L91.9288 42.7182L91.9256 42.0989Z" fill="#004F9E"/>
<path fill-rule="evenodd" clip-rule="evenodd" d="M100.803 32.4874C101.187 32.7329 101.495 33.1563 101.719 33.7631C102.275 35.2782 102.3 38.642 101.808 40.143C101.627 40.685 101.373 41.1057 101.036 41.392C100.699 41.6837 100.332 41.8273 99.9314 41.8295C99.6616 41.8311 99.4536 41.7223 99.3143 41.5019C99.1765 41.2755 99.1137 40.9462 99.1121 40.5158L99.1137 39.9041L99.0765 32.15C99.8356 32.1408 100.415 32.2469 100.803 32.4874ZM96.2241 27.1274C96.3922 27.2662 96.5124 27.4452 96.5757 27.6765C96.6497 27.9046 96.6821 28.3002 96.6869 29.1846L96.7369 39.6864C96.7417 40.5762 96.7124 41.1324 96.6417 41.3544C96.5805 41.5873 96.4608 41.774 96.2975 41.9117C96.1251 42.0602 95.8139 42.1283 95.3378 42.131L95.3405 42.752L100.51 42.7258C101.954 42.7188 103.051 42.2192 103.802 41.239C105.022 39.6287 105.13 34.4983 103.844 32.8254C102.724 31.3533 100.802 31.1715 99.0723 31.1982L99.0537 27.2335H99.0723L101.051 27.2232C101.731 27.2199 102.233 27.4512 102.545 27.9291C102.986 28.5729 102.928 29.5084 103.049 30.7204L103.666 30.7176L103.646 26.2654L95.2617 26.3073L95.2649 26.9217C95.7309 26.9195 96.0512 26.9892 96.2241 27.1274Z" fill="#004F9E"/>
<path fill-rule="evenodd" clip-rule="evenodd" d="M108.591 38.2484C108.882 37.5975 109.591 36.5189 110.192 35.9382L110.209 39.6607C109.468 40.9135 107.721 40.1456 108.591 38.2484ZM112.464 40.5499C112.408 40.4933 112.375 40.3856 112.344 40.2599C112.319 40.1292 112.31 39.7989 112.308 39.2775L112.288 35.1164C112.283 33.8941 112.238 33.1094 112.166 32.7719C111.969 31.7428 111.337 30.6179 109.821 30.619C109.273 30.6217 108.746 30.7611 108.235 31.0457C107.726 31.3363 107.33 31.7423 107.05 32.2734C106.77 32.8046 106.646 33.246 106.593 34.0144C106.564 34.9793 107.151 35.3603 107.745 35.3575C108.339 35.3548 108.816 34.8672 108.813 34.268C108.812 34.0547 108.756 33.893 108.647 33.6906C108.482 33.3913 107.701 32.8106 108.414 31.893C108.628 31.6612 108.897 31.5377 109.223 31.536C109.803 31.5328 109.973 31.954 110.087 32.3643C110.15 32.5902 110.178 33.13 110.182 33.9817L110.187 35.1268C108.65 36.2756 107.65 37.203 107.195 37.8969C106.737 38.5907 106.429 39.1992 106.433 40.0656C106.44 41.3527 107.15 42.4531 108.233 42.4416C109.314 42.4318 109.907 41.7064 110.214 40.618C110.264 41.2335 110.407 41.6873 110.636 41.9872C110.868 42.2865 111.177 42.4389 111.576 42.4367C111.923 42.4351 112.36 42.3203 112.625 42.0531C112.888 41.7897 113.123 41.3809 113.37 40.7818L112.944 40.3763C112.81 40.6664 112.513 40.619 112.464 40.5499Z" fill="#004F9E"/>
</svg>
