<svg width="28" height="32" viewBox="0 0 28 32" fill="none" xmlns="http://www.w3.org/2000/svg">
<path fill-rule="evenodd" clip-rule="evenodd" d="M1.99999 0H18.993L28 8.97203V30C28 31.105 27.104 32 26 32H1.99999C0.895953 32 0 31.105 0 30V1.99998C0 0.89502 0.896056 0 1.99999 0Z" fill="#DF001B"/>
<path fill-rule="evenodd" clip-rule="evenodd" d="M28 9H21.0064C19.8988 9 19 8.10205 19 6.99556V0L28 9Z" fill="#A10014"/>
<path fill-rule="evenodd" clip-rule="evenodd" d="M8.99386 14H7.60959C7.21821 14 7 14.2584 7 14.6512V19.3488C7 19.7676 7.25022 20 7.5865 20C7.92278 20 8.17299 19.7676 8.17299 19.3488V17.9773H9.04078C10.1118 17.9773 10.9956 17.2178 10.9956 15.9966C10.9957 14.8015 10.1429 14 8.99386 14ZM14.0455 14H12.6482C12.2688 14 11.9996 14.2605 11.9996 14.6472V19.3528C11.9996 19.8327 12.3869 19.983 12.6641 19.983H14.1305C15.8661 19.983 17.0122 18.8399 17.0122 17.0756C17.0112 15.2102 15.9323 14 14.0455 14ZM20.5005 15.1531C20.8358 15.1531 21 14.8606 21 14.5771C21 14.2835 20.8288 14 20.5005 14H18.5907C18.2174 14 18.0092 14.3095 18.0092 14.6512V19.3488C18.0092 19.7676 18.2474 20 18.5697 20C18.89 20 19.1293 19.7676 19.1293 19.3488V18.0595H20.2844C20.6427 18.0595 20.8219 17.7659 20.8219 17.4744C20.8219 17.1889 20.6427 16.9053 20.2844 16.9053H19.1293V15.1531H20.5005ZM13.2608 18.8229H14.1126C15.1996 18.8229 15.6961 18.0255 15.6961 17.0176C15.6961 15.9406 15.1907 15.1602 14.0285 15.1602H13.2608V18.8229ZM8.1731 16.8753H8.97087C9.46333 16.8753 9.77558 16.4907 9.77661 15.9897C9.77661 15.4877 9.46333 15.1031 8.97087 15.1031H8.1731V16.8753Z" fill="white"/>
</svg>
