<svg width="37" height="32" viewBox="0 0 37 32" fill="none" xmlns="http://www.w3.org/2000/svg">
<path fill-rule="evenodd" clip-rule="evenodd" d="M32.7314 13.333C33.9024 13.333 34.9067 13.7253 35.7446 14.5103C36.5818 15.2949 37.0003 16.2359 37 17.3332V26.0001C37 26.1809 36.9297 26.3365 36.7889 26.469C36.6482 26.6007 36.4814 26.6665 36.2889 26.6665H31.3082V29.9998C31.3082 30.5556 31.1005 31.0276 30.6856 31.4167C30.2708 31.8052 29.766 32 29.1733 32H7.82714C7.23414 32 6.73001 31.8052 6.3149 31.4167C5.89979 31.0279 5.69231 30.5556 5.69231 29.9998V26.6665H0.711452C0.518927 26.6665 0.352104 26.6007 0.211216 26.469C0.0704832 26.3364 0 26.1809 0 26.0001V17.3332C0 16.2359 0.418693 15.2949 1.25624 14.5103C2.09393 13.7255 3.09822 13.333 4.26933 13.333H5.69231V1.99989C5.69231 1.44422 5.90002 0.971961 6.3149 0.58325C6.73001 0.194319 7.23414 0 7.82714 0H22.7697C23.363 0 24.0149 0.138862 24.7266 0.416513C25.4378 0.694456 26.001 1.02793 26.416 1.41649L29.7963 4.58325C30.2113 4.97218 30.5668 5.4999 30.8632 6.16655C31.1599 6.83292 31.3086 7.44433 31.3086 7.99971V13.333H32.7314ZM8.53798 29.3333H28.4612V24.0002H8.53798V29.3333ZM28.4612 15.9999H8.53798V2.66669H22.769V5.99989C22.769 6.55548 22.9769 7.02752 23.3914 7.41653C23.8063 7.80546 24.3103 7.99978 24.9036 7.99978H28.4612V15.9999ZM32.7316 18.6667C33.117 18.6667 33.4507 18.5343 33.7321 18.2706C34.0138 18.0072 34.1548 17.6943 34.1548 17.3332C34.1548 16.972 34.0135 16.6594 33.7321 16.3957C33.4506 16.1318 33.1169 15.9998 32.7316 15.9998C32.3461 15.9998 32.0124 16.1318 31.731 16.3957C31.4496 16.6595 31.3088 16.972 31.3088 17.3332C31.3088 17.6943 31.4496 18.0072 31.731 18.2706C32.0125 18.5344 32.3461 18.6667 32.7316 18.6667Z" fill="#A8A8A8"/>
</svg>
