<svg width="92" height="81" viewBox="0 0 92 81" fill="none" xmlns="http://www.w3.org/2000/svg">
<path fill-rule="evenodd" clip-rule="evenodd" d="M36.8848 42.4573H55.6841V49.6177H36.8848V42.4573Z" fill="#FFB7B8"/>
<path fill-rule="evenodd" clip-rule="evenodd" d="M69.2449 46.9751H56.8522V49.2091C56.8522 50.4437 55.8665 51.4432 54.6491 51.4432H37.0248C35.8073 51.4432 34.8217 50.4437 34.8217 49.2091V46.9751H22.429C19.5805 46.9751 17.0614 45.1337 16.1595 42.3935L8.23828 18.2913V67.0816C8.23828 70.7771 11.2032 73.7838 14.8474 73.7838H76.8265C80.4707 73.7838 83.4356 70.7771 83.4356 67.0816V18.293L75.5138 42.3935C74.6125 45.1337 72.0933 46.9751 69.2449 46.9751Z" fill="#FFB7B8"/>
<path fill-rule="evenodd" clip-rule="evenodd" d="M37.8646 7.55078H55.5982C59.2649 7.55078 62.2482 10.5622 62.2482 14.2636V16.5012H80.7495L72.3884 41.8228C72.0854 42.7383 71.2391 43.3524 70.2843 43.3524H57.8149V41.1148C57.8149 39.8783 56.8231 38.8772 55.5982 38.8772H37.8646C36.6397 38.8772 35.648 39.8783 35.648 41.1148V43.3524H23.1785C22.2237 43.3524 21.3774 42.7383 21.0744 41.8228L12.7139 16.5012H31.2146V14.2636C31.2146 10.5622 34.1979 7.55078 37.8646 7.55078ZM35.6484 14.2636V16.5012H57.8153V14.2636C57.8153 13.0288 56.8219 12.026 55.5987 12.026H37.8651C36.6419 12.026 35.6484 13.0288 35.6484 14.2636Z" fill="#FFB7B8"/>
</svg>
