<svg width="174" height="80" viewBox="0 0 174 80" fill="none" xmlns="http://www.w3.org/2000/svg">
<path fill-rule="evenodd" clip-rule="evenodd" d="M52.8076 40.8272C52.8076 40.2536 52.9043 39.7145 53.0986 39.2092C53.2921 38.7038 53.5823 38.2629 53.9701 37.8879C54.3571 37.5121 54.8513 37.2153 55.4528 36.996C56.0536 36.7782 56.7616 36.6686 57.5761 36.6686C57.9503 36.6686 58.3411 36.6893 58.7483 36.7299C59.1563 36.7706 59.5568 36.8327 59.9506 36.914C60.3451 36.996 60.7223 37.0957 61.0831 37.2115C61.4438 37.3273 61.7708 37.4607 62.0648 37.611C62.2253 37.6931 62.3153 37.7713 62.3356 37.8465C62.3551 37.9216 62.3318 38.062 62.2651 38.2667L61.7446 39.8035C61.6778 39.9944 61.6103 40.1041 61.5436 40.1309C61.4776 40.1578 61.3636 40.1516 61.2031 40.1102C60.5753 39.9193 59.9506 39.7621 59.3296 39.6394C58.7086 39.5167 58.1243 39.4546 57.5761 39.4546C56.9888 39.4546 56.5748 39.5642 56.3341 39.7828C56.0941 40.0013 55.9733 40.2682 55.9733 40.5818C55.9733 40.759 56.0138 40.9231 56.0941 41.0734C56.1736 41.2237 56.3041 41.3702 56.4841 41.5143C56.6648 41.6577 56.9048 41.8042 57.2056 41.9545C57.5063 42.1048 57.8768 42.2681 58.3178 42.4461C58.9988 42.7191 59.6273 42.9959 60.2011 43.2758C60.7763 43.5557 61.2668 43.8732 61.6741 44.2282C62.0813 44.5833 62.4016 44.9997 62.6356 45.4782C62.8696 45.9559 62.9866 46.5296 62.9866 47.199C62.9866 47.9229 62.8591 48.551 62.6056 49.0839C62.3521 49.6161 61.9981 50.0601 61.5436 50.4152C61.0898 50.771 60.5386 51.0371 59.8906 51.2143C59.2433 51.3922 58.5316 51.4811 57.7568 51.4811C57.3293 51.4811 56.8823 51.4566 56.4143 51.409C55.9471 51.3615 55.4828 51.2863 55.0223 51.1836C54.5611 51.0816 54.1103 50.9482 53.6693 50.7841C53.2283 50.6207 52.8211 50.4221 52.4476 50.1897C52.3396 50.1223 52.2766 50.0463 52.2571 49.9651C52.2368 49.883 52.2601 49.7534 52.3268 49.5755L53.0078 47.9367C53.0746 47.7726 53.1481 47.6768 53.2283 47.6499C53.3086 47.6223 53.4218 47.643 53.5696 47.7113C53.8366 47.8202 54.1298 47.9337 54.4508 48.0495C54.7711 48.1653 55.1018 48.268 55.4423 48.3562C55.7828 48.4452 56.1308 48.5203 56.4841 48.5817C56.8388 48.643 57.1891 48.6737 57.5363 48.6737C57.9503 48.6737 58.2983 48.633 58.5781 48.551C58.8586 48.4689 59.0866 48.3631 59.2598 48.2335C59.4331 48.1039 59.5538 47.9536 59.6198 47.7826C59.6873 47.6123 59.7203 47.4314 59.7203 47.2397C59.7203 47.0349 59.6836 46.8509 59.6101 46.6868C59.5366 46.5227 59.4166 46.3624 59.2493 46.2052C59.0828 46.0487 58.8556 45.8977 58.5683 45.7543C58.2811 45.6109 57.9241 45.4575 57.4966 45.2934C56.7886 45.0204 56.1473 44.7405 55.5728 44.4537C54.9983 44.1669 54.5041 43.8494 54.0901 43.5012C53.6761 43.1531 53.3588 42.7635 53.1383 42.3333C52.9178 41.9031 52.8076 41.4016 52.8076 40.8272ZM91.7603 50.7288C91.7738 50.8246 91.7798 50.8998 91.7798 50.9611C91.7798 51.0225 91.707 51.0808 91.5593 51.1352C91.065 51.2817 90.5715 51.3775 90.0765 51.419C89.583 51.4596 89.1615 51.4803 88.8143 51.4803C87.666 51.4803 86.844 51.2311 86.3498 50.7318C85.8555 50.2342 85.6088 49.4995 85.6088 48.5302V42.6914H84.2063H84.1988H84.1523C83.9925 42.6914 83.8988 42.6599 83.8718 42.5986C83.8448 42.5373 83.832 42.4383 83.832 42.3018V40.8471C83.832 40.7382 83.8485 40.6523 83.8823 40.591C83.9153 40.5296 84.0053 40.499 84.1523 40.499H85.6095L85.611 37.6785C85.6103 37.5956 85.635 37.5366 85.7243 37.5082C85.7295 37.5067 85.734 37.5044 85.7385 37.5036C86.223 37.328 87.9465 36.7682 88.113 36.7199C88.2308 36.6862 88.3305 36.7061 88.4033 36.7605C88.4775 36.8158 88.5135 36.9254 88.5135 37.0888V40.499H90.7178C90.8648 40.499 90.9548 40.5296 90.9885 40.591C91.0223 40.6523 91.0388 40.7382 91.0388 40.8471V42.3018C91.0388 42.4383 91.0253 42.5373 90.9983 42.5986C90.972 42.6599 90.8783 42.6914 90.7178 42.6914H88.5135V47.9114C88.5135 48.3078 88.611 48.5847 88.8045 48.735C88.998 48.8853 89.289 48.9597 89.676 48.9597C89.7698 48.9597 89.883 48.9535 90.0165 48.9397C90.1508 48.9259 90.2873 48.9121 90.4275 48.8983C90.5678 48.8853 90.705 48.8715 90.8385 48.8577C90.972 48.8439 91.0853 48.8308 91.179 48.8162C91.3928 48.7756 91.506 48.8439 91.5195 49.0218L91.7603 50.7288ZM156.285 44.1244L159.391 50.8444C159.498 51.1174 159.398 51.2547 159.091 51.2547H156.767C156.606 51.2547 156.482 51.2309 156.395 51.1826C156.308 51.135 156.232 51.0292 156.165 50.8651L154.262 46.481L152.739 48.2424V48.7654V49.4825C152.739 49.7347 152.735 49.984 152.729 50.2301C152.723 50.4755 152.719 50.6879 152.719 50.8651C152.719 51.0154 152.696 51.1174 152.649 51.1726C152.602 51.227 152.485 51.2547 152.298 51.2547H150.234C149.954 51.2547 149.813 51.1251 149.813 50.8651V37.0809C149.813 36.9306 149.847 36.8317 149.914 36.7841C149.981 36.7366 150.088 36.712 150.234 36.712H152.318C152.505 36.712 152.619 36.7327 152.659 36.7734C152.699 36.8148 152.719 36.9168 152.719 37.0809V44.2272L152.799 44.2678L155.664 40.7856C155.771 40.6759 155.861 40.6008 155.935 40.5601C156.008 40.5195 156.139 40.4988 156.326 40.4988H158.77C158.957 40.4988 159.06 40.5432 159.08 40.6322C159.101 40.7204 159.064 40.8201 158.971 40.929L156.285 44.1244ZM142.331 42.6922C142.198 42.6922 142.007 42.6953 141.76 42.7022C141.513 42.7091 141.249 42.7397 140.969 42.7942V50.8868C140.969 51.0371 140.945 51.136 140.899 51.1836C140.852 51.2319 140.735 51.2556 140.548 51.2556H138.484C138.337 51.2556 138.23 51.2319 138.164 51.1836C138.097 51.136 138.063 51.0371 138.063 50.8868V42.0979C138.063 41.6332 138.143 41.2681 138.304 41.002C138.464 40.7352 138.798 40.5473 139.302 40.4384C139.436 40.4108 139.626 40.387 139.873 40.3663C140.12 40.3464 140.384 40.3257 140.661 40.305C140.942 40.2843 141.219 40.2682 141.493 40.2536C141.767 40.2398 142.004 40.2337 142.201 40.2337C143.136 40.2337 143.941 40.3287 144.622 40.5205C145.3 40.7114 145.865 41.0151 146.312 41.4322C146.759 41.8487 147.09 42.3947 147.31 43.071C147.53 43.7474 147.641 44.5694 147.641 45.5395V50.8868C147.641 51.0371 147.617 51.136 147.571 51.1836C147.524 51.2319 147.407 51.2556 147.224 51.2556H145.153C145.006 51.2556 144.902 51.2319 144.836 51.1836C144.769 51.136 144.736 51.0371 144.736 50.8868V45.3555C144.736 44.9046 144.698 44.515 144.625 44.1876C144.552 43.8593 144.425 43.5833 144.245 43.3578C144.064 43.1324 143.817 42.9652 143.504 42.8555C143.189 42.7466 142.799 42.6922 142.331 42.6922ZM135.87 49.9236C135.87 50.1016 135.847 50.2519 135.8 50.3745C135.754 50.4972 135.637 50.6138 135.45 50.7227C135.143 50.873 134.815 50.9957 134.462 51.0916C134.108 51.1874 133.747 51.2618 133.382 51.317C133.015 51.3715 132.644 51.4129 132.271 51.4397C131.9 51.4673 131.546 51.4811 131.212 51.4811C130.307 51.4811 129.556 51.3922 128.961 51.2143C128.37 51.0371 127.892 50.7948 127.532 50.4873C127.175 50.1798 126.92 49.8178 126.774 49.4014C126.627 48.985 126.554 48.5379 126.554 48.0594C126.554 47.5265 126.64 47.0387 126.814 46.5947C126.988 46.1507 127.248 45.765 127.595 45.4368C127.943 45.1093 128.38 44.8532 128.908 44.6692C129.435 44.4843 130.06 44.3923 130.781 44.3923H132.986V44.0649C132.986 43.8732 132.965 43.6883 132.925 43.5112C132.885 43.3341 132.802 43.1799 132.674 43.0503C132.548 42.92 132.371 42.8149 132.144 42.7328C131.917 42.6508 131.616 42.6102 131.242 42.6102C131.042 42.6102 130.814 42.6201 130.561 42.6408C130.307 42.6608 130.053 42.6884 129.799 42.7229C129.545 42.7566 129.299 42.7973 129.058 42.8456C128.817 42.8931 128.604 42.9445 128.417 42.9989C128.243 43.0404 128.123 43.0404 128.057 42.9989C127.989 42.9583 127.943 42.8693 127.916 42.7328L127.595 41.2988C127.556 41.1485 127.552 41.0427 127.586 40.9814C127.619 40.9192 127.689 40.8686 127.796 40.8272C128.397 40.6087 129.028 40.4522 129.689 40.3564C130.35 40.2605 131.009 40.213 131.663 40.213C133.115 40.213 134.181 40.5304 134.855 41.1654C135.533 41.8004 135.87 42.7398 135.87 43.9828V49.9236ZM132.965 46.3792H131.382C131.195 46.3792 130.995 46.393 130.781 46.4206C130.568 46.4482 130.37 46.5127 130.19 46.6147C130.01 46.7174 129.86 46.8646 129.739 47.0556C129.619 47.2473 129.559 47.5065 129.559 47.8339C129.559 48.3125 129.716 48.6468 130.03 48.8378C130.343 49.0295 130.768 49.1246 131.302 49.1246C131.382 49.1246 131.489 49.1215 131.623 49.1146C131.756 49.1077 131.9 49.0939 132.053 49.0732C132.207 49.0532 132.364 49.0256 132.524 48.9919C132.684 48.9574 132.831 48.9129 132.965 48.8585V46.3792ZM125.182 45.7847C125.182 46.5768 125.085 47.3176 124.892 48.007C124.698 48.6972 124.391 49.2976 123.97 49.8099C123.549 50.3222 123.005 50.7286 122.337 51.0292C121.669 51.3298 120.868 51.4801 119.933 51.4801C119.211 51.4801 118.469 51.4188 117.708 51.2953C116.947 51.1726 116.259 50.9679 115.644 50.681C115.484 50.6128 115.384 50.53 115.343 50.4349C115.304 50.3398 115.283 50.2171 115.283 50.066V37.1215C115.283 36.9582 115.317 36.8485 115.384 36.7941C115.451 36.7396 115.561 36.712 115.721 36.712H117.772C117.919 36.712 118.022 36.7358 118.089 36.7841C118.156 36.8317 118.188 36.9444 118.189 37.1215L118.209 40.5394C118.556 40.4305 118.937 40.3485 119.351 40.294C119.765 40.2388 120.173 40.212 120.573 40.212C121.388 40.212 122.087 40.3554 122.667 40.6422C123.248 40.929 123.726 41.3216 124.1 41.8201C124.474 42.3185 124.748 42.9097 124.922 43.5923C125.095 44.2755 125.182 45.0056 125.182 45.7847ZM122.156 45.857C122.156 44.8156 121.963 44.0403 121.572 43.535C121.184 43.0265 120.64 42.7742 119.942 42.7742C119.765 42.7742 119.511 42.7911 119.177 42.8249C118.84 42.8594 118.513 42.9307 118.189 43.0403V48.7565C118.457 48.8378 118.74 48.893 119.034 48.9198C119.331 48.9474 119.572 48.9605 119.759 48.9605C120.497 48.9605 121.081 48.7289 121.511 48.2611C121.943 47.7964 122.156 46.9942 122.156 45.857ZM113.26 48.1821C113.26 49.2887 112.876 50.1153 112.108 50.6613C111.34 51.2081 110.335 51.4811 109.092 51.4811C108.398 51.4811 107.666 51.4021 106.898 51.2449C106.13 51.0885 105.452 50.8323 104.864 50.4765C104.758 50.409 104.694 50.337 104.674 50.2618C104.654 50.1867 104.678 50.0808 104.744 49.9443L105.325 48.531C105.392 48.3807 105.462 48.2879 105.536 48.2542C105.609 48.2204 105.719 48.2373 105.866 48.3056C106.08 48.4007 106.321 48.4934 106.588 48.5816C106.855 48.6706 107.132 48.7488 107.419 48.8171C107.706 48.8861 107.984 48.9405 108.251 48.9812C108.518 49.0226 108.758 49.0425 108.972 49.0425C109.453 49.0425 109.79 48.9574 109.984 48.7864C110.177 48.6161 110.275 48.4007 110.275 48.1415C110.275 47.8685 110.138 47.6361 109.864 47.4452C109.59 47.2534 109.119 47.028 108.451 46.7688C107.917 46.564 107.446 46.3524 107.039 46.1331C106.631 45.9153 106.287 45.6799 106.007 45.4268C105.726 45.1737 105.512 44.8869 105.365 44.5664C105.218 44.2451 105.145 43.8731 105.145 43.4498C105.145 42.9989 105.225 42.5795 105.386 42.1899C105.546 41.8003 105.786 41.4629 106.106 41.1761C106.427 40.8893 106.832 40.66 107.319 40.4898C107.807 40.3188 108.384 40.2337 109.052 40.2337C109.653 40.2337 110.264 40.2912 110.886 40.4077C111.507 40.5235 112.071 40.6976 112.579 40.93C112.726 40.9982 112.806 41.0695 112.82 41.1447C112.832 41.2198 112.813 41.3395 112.759 41.5036L112.259 42.8149C112.205 42.9652 112.145 43.0503 112.078 43.071C112.011 43.091 111.904 43.0741 111.757 43.0196C111.263 42.8693 110.809 42.7535 110.395 42.6715C109.981 42.5894 109.553 42.548 109.112 42.548C108.752 42.548 108.491 42.6331 108.331 42.8049C108.17 42.9752 108.09 43.1492 108.09 43.3271C108.09 43.6001 108.214 43.8256 108.461 44.0027C108.708 44.1807 109.139 44.3854 109.754 44.617C110.234 44.8087 110.689 45.0035 111.116 45.2013C111.543 45.3992 111.914 45.6315 112.229 45.8976C112.542 46.1645 112.792 46.482 112.979 46.8508C113.167 47.2197 113.26 47.6637 113.26 48.1821ZM98.4458 49.0425C98.5793 49.0425 98.7698 49.0364 99.0203 49.0226C99.2671 49.0088 99.5348 48.9812 99.8153 48.9405V40.8686C99.8153 40.7183 99.8386 40.6156 99.8851 40.5611C99.9323 40.5067 100.049 40.4791 100.236 40.4791H102.299C102.58 40.4791 102.72 40.6087 102.72 40.8686V49.6161C102.72 50.0808 102.63 50.4497 102.449 50.7227C102.269 50.9957 101.946 51.1874 101.478 51.2963C101.318 51.3239 101.117 51.3515 100.877 51.3784C100.637 51.4052 100.379 51.4297 100.106 51.4504C99.8318 51.4704 99.5611 51.4842 99.2941 51.4911C99.0271 51.498 98.7931 51.5011 98.5928 51.5011C97.6306 51.5011 96.8123 51.4052 96.1381 51.2143C95.4638 51.0233 94.9163 50.7166 94.4948 50.2925C94.0741 49.8692 93.7703 49.3194 93.5836 48.643C93.3968 47.9674 93.3031 47.1446 93.3031 46.1745V40.8686C93.3031 40.7183 93.3263 40.6156 93.3728 40.5611C93.4193 40.5067 93.5363 40.4791 93.7201 40.4791H95.7908C96.0683 40.4791 96.2086 40.6087 96.2086 40.8686V46.3593C96.2086 46.8094 96.2348 47.2021 96.2888 47.5372C96.3421 47.8715 96.4486 48.1514 96.6121 48.3769C96.7726 48.6023 96.9998 48.7695 97.2968 48.8792C97.5908 48.9881 97.9748 49.0425 98.4458 49.0425ZM82.2421 49.9236C82.2421 50.1016 82.2188 50.2519 82.1723 50.3745C82.1251 50.4972 82.0088 50.6138 81.8221 50.7227C81.5138 50.873 81.1868 50.9957 80.8328 51.0916C80.4796 51.1874 80.1188 51.2618 79.7543 51.317C79.3868 51.3715 79.0163 51.4129 78.6421 51.4397C78.2716 51.4673 77.9176 51.4811 77.5838 51.4811C76.6793 51.4811 75.9271 51.3922 75.3331 51.2143C74.7421 51.0371 74.2643 50.7948 73.9036 50.4873C73.5458 50.1798 73.2923 49.8178 73.1453 49.4014C72.9983 48.985 72.9248 48.5379 72.9248 48.0594C72.9248 47.5265 73.0118 47.0387 73.1858 46.5947C73.3591 46.1507 73.6201 45.765 73.9666 45.4368C74.3146 45.1093 74.7518 44.8532 75.2791 44.6692C75.8071 44.4843 76.4318 44.3923 77.1526 44.3923H79.3568V44.0649C79.3568 43.8732 79.3373 43.6883 79.2968 43.5112C79.2571 43.3341 79.1731 43.1799 79.0463 43.0503C78.9196 42.92 78.7426 42.8149 78.5153 42.7328C78.2881 42.6508 77.9881 42.6102 77.6138 42.6102C77.4136 42.6102 77.1863 42.6201 76.9328 42.6408C76.6793 42.6608 76.4251 42.6884 76.1708 42.7229C75.9173 42.7566 75.6706 42.7973 75.4298 42.8456C75.1891 42.8931 74.9753 42.9445 74.7886 42.9989C74.6146 43.0404 74.4946 43.0404 74.4278 42.9989C74.3611 42.9583 74.3146 42.8693 74.2876 42.7328L73.9666 41.2988C73.9268 41.1485 73.9238 41.0427 73.9568 40.9814C73.9906 40.9192 74.0603 40.8686 74.1676 40.8272C74.7683 40.6087 75.3998 40.4522 76.0606 40.3564C76.7221 40.2605 77.3798 40.213 78.0346 40.213C79.4873 40.213 80.5523 40.5304 81.2273 41.1654C81.9046 41.8004 82.2421 42.7398 82.2421 43.9828V49.9236ZM79.3374 46.3792H77.7541C77.5674 46.3792 77.3664 46.393 77.1526 46.4206C76.9396 46.4482 76.7424 46.5127 76.5616 46.6147C76.3816 46.7174 76.2309 46.8646 76.1108 47.0556C75.9908 47.2473 75.9308 47.5065 75.9308 47.8339C75.9308 48.3125 76.0876 48.6468 76.4011 48.8378C76.7154 49.0295 77.1391 49.1246 77.6739 49.1246C77.7541 49.1246 77.8606 49.1215 77.9949 49.1146C78.1276 49.1077 78.2716 49.0939 78.4254 49.0732C78.5791 49.0532 78.7359 49.0256 78.8964 48.9919C79.0569 48.9574 79.2031 48.9129 79.3374 48.8585V46.3792ZM71.7826 50.7288C71.7961 50.8246 71.8028 50.8998 71.8028 50.9611C71.8028 51.0225 71.7293 51.0808 71.5823 51.1352C71.0888 51.2817 70.5938 51.3775 70.0996 51.419C69.6053 51.4596 69.1846 51.4803 68.8373 51.4803C67.6883 51.4803 66.8671 51.2311 66.3728 50.7318C65.8786 50.2342 65.6318 49.4995 65.6318 48.5302V42.6914H64.2293H64.2218H64.1753C64.0148 42.6914 63.9211 42.6599 63.8948 42.5986C63.8686 42.5373 63.8543 42.4383 63.8543 42.3018V40.8471C63.8543 40.7382 63.8716 40.6523 63.9046 40.591C63.9383 40.5296 64.0283 40.499 64.1753 40.499H65.6326L65.6341 37.6785C65.6333 37.5956 65.6581 37.5366 65.7473 37.5082C65.7518 37.5067 65.7571 37.5044 65.7616 37.5036C66.2453 37.328 67.9688 36.7682 68.1361 36.7199C68.2538 36.6862 68.3536 36.7061 68.4263 36.7605C68.4998 36.8158 68.5373 36.9254 68.5373 37.0888V40.499H70.7408C70.8878 40.499 70.9778 40.5296 71.0108 40.591C71.0446 40.6523 71.0618 40.7382 71.0618 40.8471V42.3018C71.0618 42.4383 71.0483 42.5373 71.0213 42.5986C70.9951 42.6599 70.9013 42.6914 70.7408 42.6914H68.5373V47.9114C68.5373 48.3078 68.6341 48.5847 68.8276 48.735C69.0211 48.8853 69.3113 48.9597 69.6991 48.9597C69.7928 48.9597 69.9061 48.9535 70.0396 48.9397C70.1731 48.9259 70.3096 48.9121 70.4506 48.8983C70.5908 48.8853 70.7281 48.8715 70.8608 48.8577C70.9951 48.8439 71.1083 48.8308 71.2013 48.8162C71.4158 48.7756 71.5291 48.8439 71.5426 49.0218L71.7826 50.7288Z" fill="#AFC90C"/>
<path fill-rule="evenodd" clip-rule="evenodd" d="M44.7667 33.6474C44.9279 33.4818 45.3629 33.7601 46.0694 34.484C46.3934 34.8138 46.6229 35.0906 46.7594 35.3122C46.8959 35.5346 46.9544 35.6765 46.9334 35.7386L46.9034 35.8322L31.9207 51.1509C31.7587 51.3165 31.3199 51.032 30.6029 50.2989C30.2894 49.9783 30.0644 49.7076 29.9279 49.4852C29.7914 49.2636 29.7337 49.1218 29.7539 49.0596L29.7839 48.9669C34.7782 43.8596 39.7724 38.7539 44.7667 33.6474Z" fill="#56A6B2"/>
<path fill-rule="evenodd" clip-rule="evenodd" d="M22.9209 50.9192C22.7596 51.0841 22.3201 50.8004 21.6024 50.0673C21.2896 49.7467 21.0646 49.476 20.9281 49.2536C20.7924 49.032 20.7331 48.8902 20.7541 48.8273L20.7841 48.7345L40.0404 29.0463C40.2016 28.8806 40.6366 29.1598 41.3431 29.8821C41.6671 30.2134 41.8966 30.4895 42.0331 30.7119C42.1696 30.9335 42.2274 31.0761 42.2071 31.1375L42.1771 31.231C35.7579 37.7938 29.3394 44.3565 22.9209 50.9192Z" fill="#AFC90C"/>
<mask id="mask0" mask-type="alpha" maskUnits="userSpaceOnUse" x="14" y="40" width="7" height="7">
<path fill-rule="evenodd" clip-rule="evenodd" d="M14 40.6421H20.0907V46.8698H14V40.6421Z" fill="white"/>
</mask>
<g mask="url(#mask0)">
<path fill-rule="evenodd" clip-rule="evenodd" d="M15.9761 44.8362L15.5719 44.4229L14.0449 42.8616C13.8829 42.6967 14.1559 42.2527 14.8631 41.5295C15.1864 41.199 15.4571 40.9636 15.6739 40.8248C15.8914 40.6845 16.0301 40.6254 16.0909 40.6461L16.1816 40.6776L17.7086 42.2381L18.1129 42.6514L20.0562 44.6391L20.0869 44.7319C20.1064 44.794 20.0487 44.9359 19.9129 45.1583C19.7757 45.3799 19.5462 45.6567 19.2229 45.9873C18.5156 46.7096 18.0814 46.9888 17.9194 46.8239L15.9761 44.8362Z" fill="#AFC90C"/>
</g>
<path fill-rule="evenodd" clip-rule="evenodd" d="M20.4765 40.8627L20.0723 40.4494L18.5453 38.888C18.3833 38.7232 18.6563 38.2784 19.3635 37.556C19.6868 37.2255 19.9575 36.9909 20.1743 36.8513C20.3918 36.7109 20.5305 36.6519 20.5913 36.6726L20.682 36.704L22.209 38.2646L22.6133 38.6779L24.5565 40.6656L24.5865 40.7584C24.6068 40.8205 24.549 40.9624 24.4133 41.184C24.276 41.4064 24.0465 41.6832 23.7233 42.0137C23.016 42.7369 22.5818 43.0153 22.4198 42.8504L20.4765 40.8627Z" fill="#56A6B2"/>
</svg>
