<svg width="92" height="81" viewBox="0 0 92 81" fill="none" xmlns="http://www.w3.org/2000/svg">
<path fill-rule="evenodd" clip-rule="evenodd" d="M44.2884 36.3251C44.8557 36.0484 45.4784 35.9031 46.1094 35.9003C48.457 35.9003 50.3604 37.8035 50.3604 40.1508C50.3576 40.7817 50.2123 41.4044 49.9356 41.9717L51.4529 43.4874L62.301 23.9625L42.7725 34.8094L44.2884 36.3251Z" fill="#E0E0E0"/>
<path fill-rule="evenodd" clip-rule="evenodd" d="M45.6493 44.862C43.3016 44.862 41.3981 42.9588 41.3981 40.6115C41.4008 39.9806 41.5462 39.3579 41.8229 38.7907L40.3055 37.2749L29.458 56.7999L48.9866 45.953L47.4705 44.4372C46.9031 44.7139 46.2804 44.8592 45.6493 44.862Z" fill="#E0E0E0"/>
<path fill-rule="evenodd" clip-rule="evenodd" d="M5.49121 40.3812C5.49121 18.0794 23.574 0 45.8798 0C68.1751 0.0253509 86.243 18.09 86.2684 40.3812C86.2684 62.6829 68.1857 80.7623 45.8798 80.7623C23.574 80.7623 5.49121 62.6829 5.49121 40.3812ZM9.81745 41.8244H15.5872C16.3838 41.8244 17.0297 41.1784 17.0297 40.3817C17.0297 39.585 16.3838 38.939 15.5872 38.939H9.81745C9.02086 38.939 8.375 39.585 8.375 40.3817C8.375 41.1784 9.02086 41.8244 9.81745 41.8244ZM44.4379 4.3275C44.4379 3.53106 45.0838 2.88531 45.8804 2.88531C46.6769 2.88531 47.3228 3.53106 47.3228 4.3275V10.0962C47.3228 10.8927 46.6769 11.5384 45.8804 11.5384C45.0838 11.5384 44.4379 10.8927 44.4379 10.0962V4.3275ZM45.88 77.878C46.6765 77.878 47.3224 77.2322 47.3224 76.4358V70.667C47.3224 69.8706 46.6765 69.2248 45.88 69.2248C45.0834 69.2248 44.4375 69.8706 44.4375 70.667V76.4358C44.4375 77.2322 45.0834 77.878 45.88 77.878ZM67.3354 20.8898L52.9109 46.8491C52.9045 46.8614 52.8949 46.8699 52.8852 46.8783C52.8777 46.8849 52.8702 46.8915 52.8644 46.8998C52.7256 47.0695 52.57 47.2252 52.4002 47.3639C52.3919 47.3697 52.3853 47.3772 52.3787 47.3847C52.3703 47.3944 52.3618 47.404 52.3495 47.4104L26.3854 61.8322C25.8227 62.1434 25.1226 62.0442 24.6676 61.59C24.2133 61.135 24.114 60.4351 24.4253 59.8724L38.8498 33.9131C38.8561 33.9009 38.8658 33.8924 38.8754 33.8839C38.8829 33.8773 38.8904 33.8707 38.8963 33.8624C39.035 33.6927 39.1907 33.5371 39.3604 33.3983C39.3688 33.3925 39.3753 33.385 39.3819 33.3775C39.3904 33.3679 39.3989 33.3582 39.4111 33.3519L65.3752 18.93C65.938 18.6188 66.6381 18.7181 67.0931 19.1723C67.5474 19.6272 67.6467 20.3272 67.3354 20.8898ZM76.171 41.8244H81.9408C82.7374 41.8244 83.3832 41.1784 83.3832 40.3817C83.3832 39.585 82.7374 38.939 81.9408 38.939H76.171C75.3744 38.939 74.7285 39.585 74.7285 40.3817C74.7285 41.1784 75.3744 41.8244 76.171 41.8244Z" fill="#E0E0E0"/>
<path fill-rule="evenodd" clip-rule="evenodd" d="M48.1005 40.8249C48.1005 41.8052 47.3055 42.5999 46.3251 42.5999C45.3447 42.5999 44.5498 41.8052 44.5498 40.8249C44.5498 39.8447 45.3447 39.0499 46.3251 39.0499C47.3055 39.0499 48.1005 39.8447 48.1005 40.8249Z" fill="#E0E0E0"/>
</svg>
